<svg width="374" height="84" viewBox="0 0 374 84" fill="none" xmlns="http://www.w3.org/2000/svg">
<g clip-path="url(#clip0_53_270)">
<path d="M101.807 60.6431V26.5332H130.182V60.6431H123.252V33.0483H108.737V60.6431H101.807Z" fill="white"/>
<path d="M156.877 35.7871V60.6437H150.466V52.0159C149.22 52.2401 147.902 52.5234 146.317 52.5706L141.007 60.6437H133.799L140.137 51.6972C136.81 50.3281 135.057 47.9675 135.057 44.2733C135.057 39.2099 138.854 35.7871 146.342 35.7871H156.877ZM150.466 40.9921H146.535C143.257 40.9921 141.624 42.137 141.624 44.3677C141.624 46.5984 143.221 47.6488 146.402 47.6488C147.805 47.6488 149.16 47.5544 150.478 47.3302V40.9921H150.466Z" fill="white"/>
<path d="M200.238 37.8881C202.21 39.753 203.19 42.3142 203.19 45.6425V60.6438H196.586V46.8228C196.586 43.0341 194.529 41.0277 191.481 41.0277C188.155 41.0277 185.857 43.3528 185.857 46.9998V60.632H179.253V46.8582C179.253 43.164 177.245 41.0159 174.1 41.0159C170.956 41.0159 168.524 43.341 168.524 47.0353V60.6202H161.92V35.7636H168.379V39.3163C169.831 36.7197 172.83 35.0319 176.157 35.0791C179.338 35.0791 182.289 36.5898 183.644 39.4579C185.518 36.7197 188.978 35.0791 192.776 35.0791C195.824 35.0791 198.303 35.9879 200.226 37.8645" fill="white"/>
<path d="M259.953 38.9385C262.336 41.4407 263.509 44.5448 263.509 48.1918C263.509 51.8389 262.288 54.943 259.905 57.4452C257.51 59.9473 254.522 61.2338 250.918 61.2338C247.785 61.2338 244.894 59.9001 242.911 57.5396V70.8649H236.307V35.799H242.862V39.0565C244.955 36.5071 247.737 35.1616 250.966 35.1616C254.571 35.1616 257.57 36.4363 259.953 38.9503M254.897 53.3024C256.204 51.9333 256.857 50.2455 256.857 48.239C256.857 46.2326 256.204 44.5448 254.897 43.1757C253.591 41.8066 251.898 41.122 249.793 41.122C247.688 41.122 246.043 41.8066 244.737 43.1757C243.419 44.5448 242.766 46.2326 242.766 48.239C242.766 50.2455 243.419 51.9333 244.737 53.3024C246.043 54.6715 247.737 55.3561 249.793 55.3561C251.849 55.3561 253.591 54.6715 254.897 53.3024Z" fill="white"/>
<path d="M269.738 38.9388C272.314 36.3894 275.592 35.1147 279.572 35.1147C283.551 35.1147 286.829 36.3894 289.405 38.9388C291.981 41.441 293.251 44.5451 293.251 48.1922C293.251 51.8392 291.981 54.9905 289.405 57.4927C286.829 59.9949 283.551 61.2814 279.572 61.2814C275.592 61.2814 272.314 60.0067 269.738 57.4927C267.162 54.9905 265.892 51.8864 265.892 48.1922C265.892 44.4979 267.162 41.441 269.738 38.9388ZM279.572 55.3092C281.579 55.3092 283.224 54.6246 284.579 53.2555C285.934 51.8392 286.635 50.1514 286.635 48.1922C286.635 46.2329 285.934 44.5451 284.579 43.176C283.224 41.8069 281.579 41.1223 279.572 41.1223C277.564 41.1223 275.871 41.8069 274.516 43.176C273.161 44.5451 272.508 46.2329 272.508 48.1922C272.508 50.1514 273.161 51.8392 274.516 53.2555C275.871 54.6246 277.564 55.3092 279.572 55.3092Z" fill="white"/>
<path d="M311.842 35.7871H318.446V60.6437H311.842V52.2755C309.907 53.3496 307.814 53.8925 306.169 53.8925C303.121 53.8925 300.872 53.3496 298.864 52.0277C296.844 50.6113 295.731 47.9675 295.731 44.1434V35.7989H302.287V43.6831C302.287 46.5984 303.835 48.0619 306.919 48.0619C308.649 48.0619 310.125 47.8259 311.842 47.1649V35.7989V35.7871Z" fill="white"/>
<path d="M340.266 60.6439L330.106 49.1716V60.6439H323.502V35.752H330.106V45.619L339.371 35.7874H347.705L336.323 47.295L348.358 60.6439H340.266Z" fill="white"/>
<path d="M367.723 35.7873H374V60.6321H367.723V57.3509C365.533 59.9475 362.8 61.2222 359.57 61.2222C355.918 61.2222 352.87 59.9947 350.487 57.4807C348.104 54.9668 346.931 51.8272 346.931 48.0858C346.931 44.3443 348.152 41.2402 350.535 38.8324C352.93 36.3657 355.966 35.1382 359.57 35.1382C362.751 35.1382 365.57 36.5427 367.723 39.0331V35.7755V35.7873ZM365.763 43.1286C364.408 41.7123 362.715 41.0277 360.659 41.0277C358.603 41.0277 356.861 41.7123 355.506 43.1286C354.2 44.545 353.535 46.2327 353.535 48.192C353.535 50.1513 354.188 51.8863 355.555 53.3026C356.909 54.7189 358.603 55.4035 360.659 55.4035C362.715 55.4035 364.408 54.7189 365.763 53.3026C367.118 51.8863 367.819 50.1985 367.819 48.192C367.819 46.1855 367.118 44.545 365.763 43.1286Z" fill="white"/>
<path d="M232.46 50.4699H213.313C214.245 53.9753 216.736 55.7576 220.752 55.7576C223.522 55.7576 226.594 54.7543 228.929 52.9485L231.589 57.0205C228.36 59.9593 224.695 61.1868 220.474 61.1868C215.974 61.1868 212.564 59.9121 210.169 57.3981C207.774 54.896 206.613 51.7918 206.613 48.192C206.613 44.4033 207.834 41.311 210.314 38.8443C212.793 36.3775 215.974 35.15 219.917 35.15C223.619 35.15 226.703 36.2949 229.098 38.5256C231.493 40.7563 232.702 43.766 232.702 47.6491C232.702 48.5107 232.605 49.4785 232.472 50.4817M215.224 25.8022C217.426 25.8022 219.155 27.49 219.155 29.5437C219.155 31.7744 217.474 33.415 215.224 33.415C212.975 33.415 211.293 31.7744 211.293 29.5437C211.293 27.49 213.023 25.8022 215.224 25.8022ZM213.313 45.6898H226.28C225.675 42.4559 223.28 40.4966 219.917 40.4966C216.555 40.4966 214.112 42.4559 213.313 45.6898ZM221.454 29.5437C221.454 27.3956 223.183 25.8022 225.433 25.8022C227.683 25.8022 229.316 27.49 229.316 29.5437C229.316 31.7744 227.634 33.415 225.433 33.415C223.232 33.415 221.454 31.7744 221.454 29.5437Z" fill="white"/>
<path d="M43.0352 0C19.3042 0 0 18.8372 0 41.9941C0 65.151 19.3042 83.9882 43.0352 83.9882C66.7663 83.9882 86.0704 65.151 86.0704 41.9941C86.0704 18.8372 66.7663 0 43.0352 0Z" fill="white"/>
<path d="M66.6454 13.2203C61.3839 26.5574 47.4138 24.8342 37.5682 25.1646L35.1733 34.2645C47.317 24.5981 63.3917 34.1819 61.6742 48.7701C60.5131 58.59 53.3405 65.0106 45.7446 66.8637C37.4714 68.8819 28.3153 65.8604 24.2028 57.6457C23.7674 56.7723 23.0054 55.0373 22.7151 54.1049L31.4358 51.9214C31.5931 52.4171 31.8471 52.8892 32.1253 53.3141C37.9673 62.5085 49.7966 57.9054 51.1271 48.3806C52.4817 38.6788 38.5358 33.521 32.1858 44.8516L24.4568 41.6294L24.3238 41.5704L27.2025 30.287C27.6621 28.2806 29.0289 23.0402 29.1861 22.5326C29.428 21.7537 29.4885 21.4822 29.7667 20.774C34.7258 8.0625 44.523 6.776 53.2317 6.776C53.5824 6.776 53.9211 6.776 54.2719 6.776C50.7158 5.70195 46.9421 5.11182 43.0353 5.11182C22.1708 5.11182 5.26154 21.612 5.26154 41.9717C5.26154 62.3314 22.1708 78.8316 43.0353 78.8316C63.8997 78.8316 80.809 62.3314 80.809 41.9717C80.809 30.3342 75.2694 19.9478 66.6333 13.1967" fill="#E52322"/>
<path d="M63.1983 10.7295C61.7347 15.1673 59.1826 17.9646 55.2275 19.4635C51.115 21.0215 46.1197 21.0687 41.2815 21.1041C38.681 21.1277 36.1894 21.1395 33.9155 21.411C38.0158 11.7327 45.3939 10.7885 53.2438 10.7885C54.3324 10.7885 55.4331 10.8121 56.4975 10.8357C57.5619 10.8593 58.5537 10.8711 59.5576 10.8711C60.9848 10.8711 62.1702 10.8239 63.2104 10.7413" fill="#00923A"/>
</g>
<defs>
<clipPath id="clip0_53_270">
<rect width="374" height="84" fill="white"/>
</clipPath>
</defs>
</svg>
