<svg width="124" height="120" viewBox="0 0 124 120" fill="none" xmlns="http://www.w3.org/2000/svg">
<g clip-path="url(#clip0_27_744)">
<path d="M16.7328 76.8303C7.37214 68.9605 9.94671 57.4148 13.2003 54.4621C13.2003 54.4621 -0.250547 50.3806 6.68505 33.0661C13.6247 15.7557 28.0698 15.4705 28.0698 15.4705C28.0698 15.4705 35.2924 1.53454 53.1325 0.128492C70.9767 -1.27755 75.0831 9.27583 75.0831 9.27583C75.0831 9.27583 95.4736 0.550305 109.919 20.8175C124.364 41.0846 118.98 49.5289 118.98 49.5289C118.98 49.5289 129.885 60.6487 119.546 79.3692C109.207 98.0897 102.413 97.5273 102.413 97.5273C102.413 97.5273 102.401 118.064 83.0776 119.691C63.7541 121.314 61.7737 115.967 61.7737 115.967C61.7737 115.967 56.7418 115.139 47.8944 107.804C39.0471 100.464 30.0502 85.0014 30.0502 85.0014C30.0502 85.0014 22.2416 81.4622 16.7287 76.8303H16.7328Z" fill="#97AAA8"/>
<path d="M37.8386 37.2642C37.8386 37.2642 46.3343 46.5522 59.3648 42.8924C59.3648 42.8924 60.7794 51.8992 72.9571 59.2186C72.9571 59.2186 66.5833 60.4841 69.4165 77.0955C72.2498 93.7029 75.9318 92.0157 75.9318 92.0157C75.9318 92.0157 60.8441 101.099 59.4295 108.418C59.4295 108.418 39.6089 97.7162 32.354 83.254C25.095 68.7918 17.5896 63.023 19.7155 55.2817C19.7155 55.2817 31.3112 32.7689 37.8426 37.2642H37.8386Z" fill="#818B88"/>
<path d="M62.6305 89.6977C64.1744 89.8785 65.2172 95.342 62.8002 97.7403C62.6992 97.8408 62.5779 97.9291 62.4365 98.0014C59.3244 99.6284 47.4619 94.1167 43.016 97.2301C38.368 100.472 23.4864 115.099 23.4864 115.099L19.3437 110.989L0.852783 92.6103C0.852783 92.6103 17.2015 79.7831 20.6451 77.0433C24.0927 74.3116 24.0321 62.6213 28.1021 54.3538C28.1021 54.3538 29.5975 53.7512 30.9313 54.2935C31.3839 54.4743 31.8204 54.7957 32.1721 55.3179C32.1721 55.3179 29.2499 62.6896 33.2916 66.6988C37.3334 70.7161 48.2662 51.8269 48.2662 51.8269C48.2662 51.8269 52.4696 51.5658 54.1995 55.3219C54.1995 55.3219 42.527 71.9856 44.0467 73.6327C48.0075 77.899 60.5692 68.84 60.5692 68.84C60.5692 68.84 61.0017 68.9807 61.6201 69.29C63.4793 70.234 66.9349 72.7649 64.8736 77.899C64.8736 77.899 49.6566 85.813 49.2403 85.9737C44.7337 87.6489 61.0825 89.529 62.6305 89.6977Z" fill="#D9D9D9"/>
<path d="M9.39699 37.5936C10.0517 35.2757 11.0622 33.0541 12.2989 30.9491C13.5317 28.844 15.0554 26.8756 16.854 25.1321C18.6768 23.4287 20.7906 21.9142 23.2156 20.9822C25.6124 20.006 28.2637 19.5963 30.8545 19.7409L29.5369 20.3796C32.0104 16.9047 34.8841 13.9681 38.174 11.3729C41.4276 8.77773 45.1622 6.7008 49.1877 5.42331C53.2214 4.18599 57.5864 3.90478 61.6766 4.77653C65.775 5.62819 69.5378 7.51631 72.7308 9.99497C69.1296 8.15104 65.3223 6.78115 61.422 6.37942C57.5339 5.96162 53.6175 6.47583 50.0082 7.83367C46.3707 9.13125 43.0564 11.2323 40.0211 13.6547C38.5095 14.88 37.0787 16.2097 35.7328 17.6238C34.3829 19.0097 33.0613 20.5242 31.974 22.0227L31.4769 22.7096L30.6564 22.6614C28.4577 22.5369 26.2429 22.7458 24.1452 23.4729C22.0516 24.192 20.0671 25.3128 18.2726 26.735C16.4781 28.1611 14.8452 29.8403 13.37 31.6722C11.9029 33.5121 10.557 35.4806 9.39294 37.5816L9.39699 37.5936Z" fill="#97AAA8"/>
<path d="M62.4365 98.0014C59.3243 99.6284 47.4619 94.1167 43.016 97.2301C38.368 100.472 23.4864 115.099 23.4864 115.099L19.3436 110.989C19.3436 110.989 39.3582 93.9359 44.2083 94.3497C47.571 94.643 57.0003 96.748 62.4365 98.0054V98.0014Z" fill="#97AAA8"/>
<path d="M23.4783 115.095C21.0088 117.55 13.9399 114.508 7.69136 108.298C1.44286 102.087 -1.61672 95.0648 0.852769 92.6063C3.32226 90.1517 10.3912 93.1928 16.6397 99.4035C22.8882 105.614 25.9478 112.636 23.4783 115.095Z" fill="#97AAA8"/>
<path d="M33.2957 66.6987C28.7892 64.2481 30.0826 57.3786 30.9313 54.2974C31.384 54.4781 31.8205 54.7995 32.1721 55.3218C32.1721 55.3218 29.25 62.6935 33.2917 66.7027L33.2957 66.6987Z" fill="#97AAA8"/>
<path d="M21.9263 106.004C22.0476 107.723 21.6556 109.178 20.6653 110.158C17.9048 112.902 11.5108 111.082 5.70288 106.161C6.32531 106.876 6.98815 107.591 7.69545 108.298C13.944 114.508 21.0089 117.55 23.4824 115.095C25.087 113.5 24.3473 109.977 21.9304 106.004H21.9263Z" fill="#D9D9D9"/>
<path d="M61.62 69.2899C58.0027 71.632 52.7484 74.8538 49.9112 75.7577C45.2834 77.216 44.0507 73.6285 44.0507 73.6285C48.0115 77.8949 60.5732 68.8359 60.5732 68.8359C60.5732 68.8359 61.0057 68.9765 61.6241 69.2859L61.62 69.2899Z" fill="#97AAA8"/>
</g>
<defs>
<clipPath id="clip0_27_744">
<rect width="124" height="120" fill="white"/>
</clipPath>
</defs>
</svg>
