<svg width="551" height="679" viewBox="0 0 551 679" fill="none" xmlns="http://www.w3.org/2000/svg">
<path d="M215.187 360.281L131.299 293.849C134.44 278.978 124.003 258.033 104.371 242.484C80.5204 223.597 52.1489 219.836 40.998 234.083C29.847 248.33 40.143 275.189 63.9935 294.077C83.6297 309.626 106.319 314.911 119.95 308.348L203.838 374.779L215.187 360.281Z" fill="#212F2F"/>
<path d="M514.836 214.344C520.883 213.559 523.445 216.317 520.242 227.997C510.346 264.08 429.078 324.062 429.078 324.062L422.648 316.823L339.581 390.317L327.405 376.612L410.472 303.118L412.404 301.411L507.171 217.565C509.773 215.262 512.012 214.71 514.836 214.344Z" fill="#212F2F"/>
<path d="M212.252 523.296L239.197 440.384L254.895 445.585L227.949 528.492L229.517 529.01C236.215 531.228 239.867 538.513 237.666 545.28L212.689 611.408C212.244 612.655 210.901 613.319 209.654 612.906L209.598 612.889C208.368 612.481 207.67 611.165 208.019 609.907L221.885 564.918C221.925 564.792 221.921 564.646 221.86 564.525C220.862 562.493 218.706 562.938 218.229 564.412L202.507 607.952C202.042 609.239 200.647 609.923 199.361 609.494C198.074 609.069 197.352 607.693 197.725 606.382L210.548 561.158C210.588 561.032 210.584 560.886 210.524 560.765C209.526 558.733 207.37 559.179 206.893 560.652L190.826 604.297C190.393 605.475 189.115 606.098 187.928 605.706C186.746 605.313 186.08 604.05 186.421 602.84L199.212 557.398C199.252 557.272 199.248 557.127 199.188 557.005C198.19 554.973 196.033 555.419 195.556 556.892L180.488 601.076C180.075 602.152 178.905 602.711 177.819 602.35C176.716 601.986 176.099 600.8 176.432 599.675L193.861 534.264C196.294 526.776 204.828 520.908 212.256 523.288L212.252 523.296Z" fill="#212F2F"/>
<path d="M351.526 523.296L324.284 440.384L308.415 445.585L335.656 528.492L334.071 529.01C327.3 531.228 323.608 538.513 325.833 545.28L351.084 611.408C351.534 612.655 352.892 613.319 354.152 612.906L354.209 612.889C355.453 612.481 356.158 611.165 355.805 609.907L341.788 564.918C341.747 564.792 341.751 564.646 341.812 564.525C342.821 562.493 345.001 562.938 345.484 564.412L361.378 607.952C361.848 609.239 363.258 609.923 364.559 609.494C365.86 609.069 366.589 607.693 366.213 606.382L353.248 561.158C353.208 561.032 353.212 560.886 353.273 560.765C354.282 558.733 356.462 559.179 356.944 560.652L373.187 604.297C373.625 605.475 374.917 606.098 376.117 605.706C377.313 605.313 377.985 604.05 377.641 602.84L364.709 557.398C364.668 557.272 364.673 557.127 364.733 557.005C365.742 554.973 367.923 555.419 368.405 556.892L383.639 601.076C384.056 602.152 385.239 602.711 386.338 602.35C387.452 601.986 388.076 600.8 387.74 599.675L370.119 534.264C367.659 526.776 359.031 520.908 351.522 523.288L351.526 523.296Z" fill="#212F2F"/>
<path d="M195.333 139.12V236.664C217.772 215.276 248.175 202.138 281.655 202.138C315.134 202.138 345.538 215.276 367.977 236.664V139.148" fill="#E8D9C3"/>
<path d="M195.78 139.38V236.664C218.102 215.333 248.347 202.23 281.651 202.23C314.956 202.23 345.201 215.333 367.523 236.664V139.409C376.288 136.945 384.042 132.384 390.193 126.743C408.441 110.014 413.008 82.1795 401.064 60.1424C395.069 49.0897 386.22 41.07 374.812 36.0031C359.547 29.223 344.142 30.0856 329.09 36.2879C304.928 2.52815 259.494 1.43291 234.482 35.8546C200.8 27.0205 177.749 34.2499 163.422 58.1445C150.828 79.1505 153.707 106.475 170.487 123.995C177.64 131.461 186.073 136.668 195.784 139.38H195.78ZM264.065 28.6894C275.448 21.9255 289.679 22.2544 300.553 30.4747C275.549 28.9061 258.8 39.1443 248.375 60.9006C246.37 47.501 252.389 35.6299 264.065 28.6854V28.6894ZM216.23 47.0878C198.679 52.4998 183.675 60.1103 173.907 75.4315C175.295 54.606 195.259 41.0259 216.23 47.0878Z" fill="#E8D9C3"/>
<path d="M516.238 220.263C516.238 220.263 519.688 228.318 498.775 252.947C490.946 262.167 482.777 271.093 473.672 279.059L428.402 318.67" stroke="#E8D9C3" stroke-width="5" stroke-miterlimit="10" stroke-linecap="round"/>
<path d="M512.236 229.758C512.236 229.758 516.93 217.431 515.208 216.052C513.487 214.672 511.685 227.258 512.236 229.758Z" fill="#212F2F"/>
<path d="M44.38 242.706C44.38 242.706 41.2518 264.655 68.2177 287.069C101.943 315.103 130.366 301.846 123.524 282.176" stroke="#E8D9C3" stroke-width="5" stroke-miterlimit="10" stroke-linecap="round"/>
<path d="M157.037 328.195L157.351 334.208L121.096 306.525C122.761 306.007 124.635 303.995 124.635 303.995L157.037 328.191V328.195Z" fill="#E8D9C3"/>
<path d="M405.958 327.302V322.112L417.07 311.764L419.77 314.903L405.958 327.302Z" fill="#E8D9C3"/>
<path d="M216.05 524.116L241.946 445.563" stroke="#E8D9C3" stroke-width="3" stroke-miterlimit="10"/>
<path d="M197.059 553.424C197.059 553.424 200.104 550.693 201.375 555.193" stroke="#E8D9C3" stroke-width="3" stroke-miterlimit="10" stroke-linecap="round"/>
<path d="M207.418 556.877C207.418 556.877 210.463 554.146 211.734 558.645" stroke="#E8D9C3" stroke-width="3" stroke-miterlimit="10" stroke-linecap="round"/>
<path d="M218.64 560.329C218.64 560.329 222.294 557.599 223.819 562.098" stroke="#E8D9C3" stroke-width="3" stroke-miterlimit="10" stroke-linecap="round"/>
<path d="M200.512 532.303C200.512 532.303 204.063 523.77 216.745 527.776C224.118 530.105 236.332 533.725 233.85 543.107" stroke="#E8D9C3" stroke-width="3" stroke-miterlimit="10" stroke-linecap="round"/>
<path d="M347.259 524.116L321.363 444.7" stroke="#E8D9C3" stroke-width="3" stroke-miterlimit="10"/>
<path d="M340.354 562.098C340.354 562.098 341.529 557.743 344.67 560.328" stroke="#E8D9C3" stroke-width="3" stroke-miterlimit="10" stroke-linecap="round"/>
<path d="M350.712 558.645C350.712 558.645 352.122 554.291 355.892 556.875" stroke="#E8D9C3" stroke-width="3" stroke-miterlimit="10" stroke-linecap="round"/>
<path d="M361.934 554.329C361.934 554.329 363.344 549.975 367.114 552.559" stroke="#E8D9C3" stroke-width="3" stroke-miterlimit="10" stroke-linecap="round"/>
<path d="M331.753 543.971C331.753 543.971 330.667 534.75 341.184 531.027C348.106 528.578 358.134 523.684 362.797 533.188" stroke="#E8D9C3" stroke-width="3" stroke-miterlimit="10" stroke-linecap="round"/>
<path d="M155.721 70.9255C150.312 93.2401 157.49 111.041 170.013 124.093C177.172 131.552 182.621 135.368 193.711 140.619L195.333 236.664" stroke="#97AAA8" stroke-width="4" stroke-miterlimit="10"/>
<path d="M367.977 236.664L369.569 140.568C380.463 135.314 385.815 131.496 392.847 124.033C405.148 110.975 412.719 93.4606 406.09 67.4725" stroke="#97AAA8" stroke-width="4" stroke-miterlimit="10"/>
<path d="M127.243 275.509C127.243 275.509 128.821 281.517 127.425 281.381C123.659 281.011 122.979 291.047 122.979 291.047L121.096 276.891L127.243 275.513V275.509Z" fill="#212F2F"/>
<path d="M357.618 529.296C357.618 529.296 363.9 531.342 366.423 533.375C368.945 535.409 364.23 540.228 357.618 529.296Z" fill="#212F2F"/>
<path d="M207.418 528.433C207.418 528.433 203.872 533.373 201.291 535.029C198.706 536.688 195.281 531.271 207.418 528.433Z" fill="#212F2F"/>
<path d="M155.721 70.9255C150.312 93.2401 157.49 111.041 170.013 124.093C177.172 131.552 182.621 135.368 193.711 140.619L195.333 236.664" stroke="#97AAA8" stroke-width="4" stroke-miterlimit="10"/>
<path d="M367.977 236.664L369.569 140.568C380.463 135.314 385.815 131.496 392.847 124.033C405.148 110.975 412.719 93.4606 406.09 67.4725" stroke="#97AAA8" stroke-width="4" stroke-miterlimit="10"/>
<path d="M281.614 202.651C212.63 202.651 156.704 258.572 156.704 327.56C156.704 389.548 201.863 440.978 261.071 450.778V622.9H302.153V450.778C361.361 440.982 406.519 389.548 406.519 327.56C406.519 258.576 350.598 202.651 281.61 202.651H281.614ZM282.073 609.793C278.52 609.793 275.636 606.913 275.636 603.356C275.636 599.799 278.516 596.919 282.073 596.919C285.63 596.919 288.51 599.799 288.51 603.356C288.51 606.913 285.63 609.793 282.073 609.793Z" fill="#212F2F" stroke="#E8D9C3" stroke-width="4" stroke-miterlimit="10"/>
<path d="M282.822 276.996C282.822 276.996 283.475 252.091 259.842 253.134C236.214 254.178 255.089 272.606 229.467 271.845C213.31 271.365 207.679 266.519 199.776 273.432C191.869 280.344 179.857 296.259 179.459 313.652C179.06 331.045 200.054 319.561 212.811 330.755C225.568 341.953 226.43 358.109 237.616 360.602C248.801 363.1 262.098 358.48 263.258 349.147C264.418 339.814 259.375 326.618 274.021 307.759C274.021 307.759 280.957 302.397 282.822 276.992V276.996Z" fill="#E8D9C3" stroke="#E8D9C3" stroke-width="0.25" stroke-miterlimit="10"/>
<path d="M232.927 326.67C242.611 326.67 250.461 318.82 250.461 309.136C250.461 299.452 242.611 291.602 232.927 291.602C223.243 291.602 215.393 299.452 215.393 309.136C215.393 318.82 223.243 326.67 232.927 326.67Z" fill="#97AAA8"/>
<path d="M221.395 312.242C221.129 311.251 220.988 310.212 220.988 309.136C220.988 302.542 226.333 297.197 232.927 297.197C234.893 297.197 236.75 297.672 238.385 298.514" stroke="#97AAA8" stroke-width="5" stroke-miterlimit="10" stroke-linecap="round"/>
<path d="M189.771 298.522C189.771 298.522 198.523 269.714 226.969 277.919C255.415 286.124 259.061 262.604 259.061 262.604" stroke="#F2EADF" stroke-width="5" stroke-miterlimit="10" stroke-linecap="round"/>
<path d="M329.717 250.351C329.717 250.351 334.28 261.319 313.121 269.512C291.962 277.709 300.477 282.583 290.939 293C281.4 303.42 278.299 322.948 285.46 331.862C292.622 340.776 296.103 348.103 308.594 343.987C321.084 339.87 337.966 347.334 337.966 347.334C337.966 347.334 346.115 352.889 358.432 343.745C370.75 334.601 373.384 327.911 376.103 310.8C378.822 293.685 373.9 273.246 372.12 269.15C367.306 258.077 355.065 259.479 348.87 255.165C342.675 250.851 323.493 236.571 329.721 250.351H329.717Z" fill="#E8D9C3"/>
<path d="M332.891 321.1C342.574 321.1 350.425 313.249 350.425 303.565C350.425 293.882 342.574 286.031 332.891 286.031C323.207 286.031 315.357 293.882 315.357 303.565C315.357 313.249 323.207 321.1 332.891 321.1Z" fill="#97AAA8"/>
<path d="M322.369 307.251C322.104 306.26 321.963 305.221 321.963 304.145C321.963 297.552 327.308 292.206 333.902 292.206C335.867 292.206 337.724 292.682 339.36 293.524" stroke="#97AAA8" stroke-width="5" stroke-miterlimit="10" stroke-linecap="round"/>
<path d="M303.216 289.749C303.216 289.749 301.524 280.448 324.863 274.193C324.863 274.193 343.545 269.122 339.36 259.821" stroke="#F2EADF" stroke-width="5" stroke-miterlimit="10" stroke-linecap="round"/>
<path d="M281.614 217.128C342.679 217.128 392.183 266.632 392.183 327.697C392.183 388.762 342.679 438.267 281.614 438.267C220.549 438.267 171.044 388.762 171.044 327.697C171.044 266.632 220.549 217.128 281.614 217.128ZM281.614 212.294C266.037 212.294 250.924 215.347 236.693 221.365C222.949 227.178 210.607 235.5 200.014 246.093C189.42 256.687 181.098 269.033 175.286 282.773C169.268 297.004 166.214 312.117 166.214 327.693C166.214 343.27 169.268 358.383 175.286 372.614C181.098 386.358 189.42 398.7 200.014 409.293C210.607 419.887 222.953 428.209 236.693 434.021C250.924 440.039 266.037 443.093 281.614 443.093C297.19 443.093 312.303 440.039 326.534 434.021C340.278 428.209 352.62 419.887 363.214 409.293C373.811 398.696 382.129 386.354 387.942 372.614C393.96 358.383 397.013 343.27 397.013 327.693C397.013 312.117 393.96 297.004 387.942 282.773C382.129 269.029 373.807 256.687 363.214 246.093C352.616 235.496 340.274 227.178 326.534 221.365C312.303 215.347 297.19 212.294 281.614 212.294Z" fill="#212F2F"/>
<path d="M369.139 194.428L394.925 224.714L393.353 226.489L402.725 236.369L403.797 235.285L408.207 230.806L408.203 230.802L377.702 194.178L379.24 191.941L412.063 226.896L417.024 221.858L369.944 172.498L369.139 194.428Z" fill="#E8D9C3"/>
<path d="M388.683 124.413L381.523 137.149L377.502 144.301L401.038 169.545L396.831 175.438L373.816 150.864L373.859 162.545L423.384 215.422L428.972 209.757L406.635 185.908L411.063 180.298L433.887 204.779L440.09 198.491L447.305 191.174L454.339 184.048L392.903 116.918L388.688 124.417L388.683 124.413ZM436.929 179.908L430.015 187.624L392.692 147.364L398.458 138.136L436.933 179.908H436.929Z" fill="#E8D9C3"/>
<path d="M418.906 72.2101L412.618 83.3447L411.902 84.6158L406.051 94.9751L458.084 161.181L454.563 165.037L463.44 174.815L466.423 171.79L474.731 163.367L483.87 154.105L493.441 144.407L498.305 139.475L488.302 128.099L482.811 134.111L418.91 72.2144L418.906 72.2101ZM466.164 152.33L418.698 91.1745L473.6 144.191L466.164 152.334V152.33Z" fill="#E8D9C3"/>
<path d="M456.928 5.83037L441.874 31.7306L511.368 126.358L523.108 114.461L507.419 92.7083L515.821 83.082L535.107 102.025L540.081 97.0172L548 88.9999L465.584 5.79224L460.5 0L456.928 5.83037ZM494.852 75.2946L463.185 31.3959L500.555 68.0918L494.856 75.2946H494.852Z" fill="#E8D9C3"/>
<path d="M367.935 238.335C376.019 242.678 384.586 254.804 384.586 254.804L388.184 251.139L397.594 241.56L380.773 224.773L377.435 238.479L373.176 234.607L373.816 216.63L367.812 211.083L367.94 238.339L367.935 238.335ZM380.701 242.072L383.015 232.937L390.285 241.979L384.98 247.606L380.701 242.072Z" fill="#E8D9C3"/>
<path d="M57.0517 530.155L40.9726 546.462L109.17 612.474L93.8832 636.976L21.6142 566.092L17.5128 570.253L0 589L93.8832 678.478L105.539 660.376L109.869 652.656L124.228 627.049L136.112 605.851L142.591 594.293L128.736 581.108L121.83 592.179L57.0517 530.155Z" fill="#E8D9C3"/>
<path d="M164.83 464.965L157.39 474.397L133.473 452.657L125.067 461.186L185.998 516.88L192.12 505.962L167.762 483.824L174.8 473.973L198.2 495.12L203.399 485.845L148.993 436.921L141.832 444.183L164.83 464.965Z" fill="#E8D9C3"/>
<path d="M171.067 414.792L160.716 425.465L209.03 475.384L213.466 467.486L202.429 456.182L205.568 451.306L217.338 460.368L222.626 451.848C222.626 451.848 196.959 438.175 171.063 414.792H171.067ZM193.934 447.48L173.736 426.795L196.298 444.166L193.934 447.48Z" fill="#E8D9C3"/>
<path d="M82.9096 503.937L82.0537 504.801L154.526 573.015L155.153 571.897L163.356 557.258L177.884 531.345L166.385 520.753L150.882 545.611L134.532 530.345L142.976 518.524L131.198 507.606L122.283 518.91L106.119 503.822L125.067 482.697L113.949 472.46L82.9096 503.937Z" fill="#E8D9C3"/>
<path d="M391.658 418.423L366.562 434.337L388.277 415.05L382.714 409.5C361.673 435.769 334.26 447.958 334.26 447.958L337.823 454.339L363.008 437.104L340.239 458.661L342.412 462.55L366.846 439.226L394.7 421.448L391.662 418.419L391.658 418.423Z" fill="#E8D9C3"/>
<path d="M400.835 427.85L400.75 427.922L398.06 425.232L343.848 464.728L346.157 468.855L359.038 459.44L360.864 462.258L348.539 472.867L351.034 477.32L404.229 431.235L400.839 427.85H400.835ZM369.003 452.157L392.857 434.718L370.38 454.068L369.003 452.157Z" fill="#E8D9C3"/>
<path d="M528.43 555.148L520.1 546.831L434.345 627.642L441.624 640.696L453.224 660.363L458.08 667.978L551 576.478L540.433 567.139L528.43 555.152V555.148ZM467.193 639.539L458.08 624.968L514.85 570.723L525.735 582.684L467.193 639.539Z" fill="#E8D9C3"/>
<path d="M424.896 451.382L424.604 451.094L363.97 500.865L364.181 501.242L367.139 506.53L373.515 517.935L385.269 508.101L378.439 497.196L393.137 485.053L396.628 489.891L407.762 480.638L404.068 476.024L418.393 464.19L426.773 473.376L437.751 464.194L424.896 451.382Z" fill="#E8D9C3"/>
<path d="M390.361 462.542L387.408 458.784L412.232 438.764L408.542 435.087L374.202 462.627L376.011 465.177L377.269 466.953L380.061 470.889L357.453 489.205L360.326 494.348L419.571 446.077L415.588 442.107L390.361 462.542Z" fill="#E8D9C3"/>
<path d="M444.136 470.554L443.784 470.207L377.913 525.799L378.167 526.257L381.756 532.676L389.544 546.607L402.424 535.485L394.09 522.185L437.569 485.214L447.738 496.357L459.677 486.044L444.136 470.554Z" fill="#E8D9C3"/>
<path d="M451.203 500.153L456.627 506.097L396.378 558.826L401.221 567.482L462.906 512.982L468.914 519.567L481.794 508.085L463.3 489.654L451.203 500.153Z" fill="#E8D9C3"/>
<path d="M501.271 527.494L501.114 527.341L493.662 519.914L486.471 512.749L486.133 512.41L409.072 581.536L409.322 581.985L414.669 591.543L420.223 601.479L422.058 604.758L426.494 612.694L459.559 582.019L462.685 569.52L461.736 568.253L461.745 568.244L466.935 575.172L497.504 546.814L501.487 527.71L501.263 527.485L501.271 527.494ZM435.179 587.772L429.256 578.316L448.195 561.143L454.584 569.986L435.179 587.772ZM468.88 556.885L462.156 548.483L480.29 532.04L487.438 539.874L468.88 556.885Z" fill="#E8D9C3"/>
<path d="M113.022 18.7276L104.62 5.5L97.3154 5.62712L26.364 66.0752L21.0933 60.0884L2 79.9016L17.5004 99.0553V99.0595L17.5131 99.0468L90.4007 37.7514L94.3919 43.9627L28.1647 109.703L40.3119 121.829L124.487 39.4207L115.432 23.0747L113.022 18.7276Z" fill="#E8D9C3"/>
<path d="M112.073 111.613L105.37 102.411L140.693 68.6809L133.033 54.8516L82.143 104.021L84.9351 107.474L91.5235 115.63L98.5864 124.375L83.0539 139.077L65.6699 119.943L51.8236 133.319L69.9873 151.445H69.983L79.0543 160.499L153.12 91.1195L146.451 79.074L112.073 111.613Z" fill="#E8D9C3"/>
<path d="M168.889 213.13L191.243 193.382L187.011 185.713L143.281 224.608L147.891 229.434L165.123 222.671L152.556 234.315L157.166 239.95L191.676 209.164L192.375 200.995L168.889 213.13Z" fill="#E8D9C3"/>
<path d="M139.163 148.797L134.037 141.763L165.271 113.054L159.492 102.631L114.632 144.238L116.742 146.852L121.754 153.055L127.164 159.753L101.646 183.052L108.675 190.068L174.77 130.209L169.652 120.969L139.163 148.797Z" fill="#E8D9C3"/>
<path d="M181.189 242.094L183.549 239.462L183.494 223.299L181.545 225.108L178.003 228.387L172.813 233.2L169.355 236.408L165.347 240.119L161.962 243.259L170.614 253.097L173.851 250.173L168.86 244.271L171.614 241.844L174.194 245.047L176.914 242.632L174.38 239.356L180.537 233.628L181.189 242.094Z" fill="#E8D9C3"/>
<path d="M143.125 205.211L140.621 202.453L190.413 158.457L186.282 151L135.172 196.458L132.448 193.458L184.215 147.263L179.706 139.124L126.512 186.925L115.471 196.848L138.151 219.49L148.146 210.736L192.375 170.706L192.311 161.885L143.125 205.211Z" fill="#E8D9C3"/>
</svg>
