<svg width="60" height="60" viewBox="0 0 60 60" fill="none" xmlns="http://www.w3.org/2000/svg">
<path d="M9.59999 30C9.59999 18.72 18.72 9.59997 30 9.59997C41.28 9.59998 50.4 18.72 50.4 30C50.4 41.28 41.28 50.4 30 50.4C18.72 50.4 9.59999 41.28 9.59999 30ZM48 30C48 20.04 39.96 12 30 12C20.04 12 12 20.04 12 30C12 39.96 20.04 48 30 48C39.96 48 48 39.96 48 30Z" fill="#E67950"/>
<path d="M18.72 30L30.36 18.36L32.04 20.04L22.08 30L32.04 39.96L30.36 41.64L18.72 30Z" fill="#E67950"/>
<path d="M40.8 28.8L40.8 31.2L20.4 31.2L20.4 28.8L40.8 28.8Z" fill="#E67950"/>
</svg>
