<svg width="60" height="61" viewBox="0 0 60 61" fill="none" xmlns="http://www.w3.org/2000/svg">
<path d="M9.59999 30.505C9.59999 19.225 18.72 10.105 30 10.105C41.28 10.105 50.4 19.225 50.4 30.505C50.4 41.785 41.28 50.905 30 50.905C18.72 50.905 9.59999 41.785 9.59999 30.505ZM48 30.505C48 20.545 39.96 12.505 30 12.505C20.04 12.505 12 20.545 12 30.505C12 40.465 20.04 48.505 30 48.505C39.96 48.505 48 40.465 48 30.505Z" fill="#EAE0C5"/>
<path d="M18.72 30.5047L30.36 18.8647L32.04 20.5447L22.08 30.5047L32.04 40.4647L30.36 42.1447L18.72 30.5047Z" fill="#EAE0C5"/>
<path d="M40.8 29.3047L40.8 31.7047L20.4 31.7047L20.4 29.3047L40.8 29.3047Z" fill="#EAE0C5"/>
</svg>
