<svg width="472" height="546" viewBox="0 0 472 546" fill="none" xmlns="http://www.w3.org/2000/svg">
<g clip-path="url(#clip0_113_1682)">
<path d="M236.102 0.00012207C157.705 78.3527 79.2701 156.724 0.501383 235.411C-0.445178 243.001 0.0188224 299.473 1.35514 303.148H120.306C121.68 305.412 120.325 307.713 122.032 309.829C133.187 295.984 144.1 282.418 155.181 268.648C143.989 254.767 133.076 241.238 121.903 227.356C120.436 229.769 121.717 232.07 120.362 234.019C116.316 234.353 112.177 234.557 108.688 234.019C151.283 191.446 193.934 148.837 236.845 105.949C279.162 148.224 321.813 190.852 364.463 233.48C360.046 234.204 356.223 234.501 352.752 234.074C350.933 232.033 352.752 229.342 350.488 227.393C339.426 241.164 328.494 254.73 317.692 268.166C321.052 274.494 348.483 307.899 351.342 309.272C352.399 307.453 351.007 305.096 352.938 303.037C372.519 303.037 392.378 303.055 412.237 303.037C432.022 303.018 451.826 303.148 471.852 302.962V235.578C392.916 156.724 314.481 78.3342 236.102 0.00012207ZM78.9546 227.431C74.5559 222.587 70.2314 217.799 65.8884 213.011L65.1088 213.79C63.754 213.53 63.4013 214.625 62.3063 215.813C67.0391 220.545 71.6976 225.222 76.3191 229.862C75.5581 231.903 73.9063 232.72 73.2567 233.518C67.0391 227.412 60.8957 221.362 55.0122 215.572C57.8147 212.621 61.2298 209.021 64.1623 205.94C70.1572 211.934 76.1335 217.947 82.1284 223.96C82.3882 224.851 81.0148 226.02 78.9546 227.431ZM90.8516 215.331C90.3319 217.001 88.9956 217.929 87.3066 219.246C80.8292 213.66 75.0013 207.351 68.858 201.059C72.6628 197.533 76.2077 194.23 79.4372 191.224C83.2605 195.139 87.3994 199.389 91.7981 203.899C90.8887 205.68 87.8634 206.979 86.6385 209.707C87.4922 212.064 90.1834 212.918 90.8516 215.331ZM102.414 204.456C96.2154 198.257 90.1834 192.226 84.2628 186.306C87.1953 183.373 90.7031 179.866 93.8583 176.711C99.6862 182.575 105.7 188.607 111.88 194.805C109.078 198.164 105.477 201.412 102.414 204.456ZM126.19 180.107C121.995 177.806 119.657 173.148 115.425 170.624C114.497 172.628 116.39 174.131 115.778 176.154C114.033 176.21 112.363 174.929 110.191 175.393C112.994 179.55 117.188 182.223 120.102 186.194C119.378 187.92 118.098 189.034 117.058 189.553C110.896 183.503 104.939 177.639 98.5726 171.385C98.8324 170.123 100.651 169.269 101.765 168.063C104.809 167.636 106.869 170.179 109.82 169.863C109.727 167.265 108.187 165.168 107.556 162.588C108.502 160.899 109.968 159.526 111.156 158.728C117.392 164.945 123.406 170.939 129.586 177.101C129.048 178.159 127.916 179.254 126.19 180.107ZM133.911 171.682C128.269 166.077 122.348 160.176 116.205 154.07C116.502 152.585 118.135 151.676 119.397 150.191C121.903 151.546 123.313 154.144 125.874 155.703C128.64 154.553 129.902 151.509 132.593 150.21C136.342 154.274 140.091 158.357 143.915 162.514C141.038 165.149 137.382 168.508 133.911 171.682ZM147.998 158.821C141.799 152.623 135.693 146.535 129.512 140.374C130.236 139.65 131.442 138.463 132.426 137.498C138.477 143.548 144.49 149.579 150.819 155.907C150.058 157.095 148.907 158.209 147.998 158.821ZM155.385 150.86C149.594 144.958 143.618 138.871 137.326 132.45C137.66 131.689 138.941 130.538 140.759 129.61C146.049 133.526 149.928 139.205 155.83 142.564C153.158 136.199 147.088 132.747 143.098 127.254C143.692 125.602 145.047 124.563 146.643 123.523C151.988 127.346 155.459 133.155 161.064 136.551C161.194 136.644 161.565 136.347 162.196 136.087C161.12 132.71 158.02 131.002 155.83 128.664C153.622 126.288 151.06 124.266 148.87 122.28C149.538 119.57 151.209 118.754 151.951 117.863C158.132 124.024 164.145 130.037 170.196 136.087C165.407 140.875 160.285 145.997 155.385 150.86ZM182.278 124.6C176.914 120.424 173.11 114.801 167.616 111.034C167.486 110.941 167.096 111.201 166.168 111.535C169.268 117.807 174.91 122.057 178.622 127.94C177.434 129.796 175.875 131.244 174.168 132.505C172.553 131.856 171.718 130.613 170.53 129.313C171.235 126.678 169.398 124.915 167.801 123.004C164.702 119.292 161.602 115.562 158.392 111.702C161.435 108.083 164.442 105.114 167.263 102.701C173.462 108.881 179.494 114.894 185.693 121.074C185.044 122.243 183.633 123.301 182.278 124.6ZM190.742 116.119C184.617 109.994 178.603 103.982 172.367 97.746C174.372 94.9066 177.378 92.3456 180.237 89.7289C182.278 89.9516 183.039 91.4919 184.116 92.6982C183.893 95.0365 181.387 95.7232 180.552 97.746C180.552 99.2121 181.684 99.8988 182.779 100.53C183.986 100.79 184.543 99.3606 185.73 99.5462C187.011 99.9916 187.735 101.124 188.403 101.866C189.053 103.369 187.809 104.019 187.642 105.058C187.958 106.431 188.923 107.266 190.278 107.805C192.059 106.988 193.043 105.169 194.881 104.019C196.848 104.408 197.627 106.301 199.242 107.452C196.365 110.885 193.359 113.669 190.742 116.119ZM208.856 97.8388C206.035 96.0387 204.365 93.0137 201.711 91.5105C200.411 91.6961 199.892 92.3456 199.539 93.4962C200.69 96.4655 204.086 97.8388 205.59 100.845C204.773 102.497 203.585 103.685 202.472 104.186C196.31 98.0801 190.37 92.1971 184.079 85.9616C184.635 84.8481 185.823 83.7717 187.438 82.7325C190.203 84.013 191.633 87.1122 194.287 88.5226C195.604 88.5597 196.273 87.9287 196.644 86.574C195.363 83.8831 192.245 82.4726 190.834 79.6704C191.503 77.8517 192.913 76.8124 193.823 75.9031C200.003 81.9901 206.072 87.9844 212.438 94.2756C211.9 95.5376 210.415 96.6511 208.856 97.8388ZM223.519 82.9737C220.809 81.4705 219.25 78.5383 216.67 77.0165C215.315 76.9052 214.591 77.4805 214.183 78.9466C215.742 81.6004 218.619 83.3263 220.642 85.9616C219.732 87.5947 218.303 88.634 217.45 89.4876C211.269 83.3449 205.2 77.332 198.778 70.9851C199.743 70.2057 201.098 69.1293 202.657 67.9045C204.847 69.519 206.536 72.4698 209.135 73.9173C210.545 73.6946 210.972 72.9709 211.25 71.8759C210.044 69.0736 206.889 67.6818 205.404 64.8795C206.258 63.2464 207.446 62.003 208.634 61.4648C214.814 67.6818 220.846 73.7132 227.008 79.8931C226.451 80.7467 225.263 82.0087 223.519 82.9737ZM238.274 68.5911C236.102 68.4798 235.341 66.0487 233.393 65.7332C232.328 66.958 232.836 68.9499 234.915 71.7089C233.986 73.3235 232.539 74.5297 230.479 76.2C225.041 69.3706 219.825 62.801 214.536 56.1757C216.225 52.8352 218.934 50.8124 221.774 48.3813C228.864 53.2621 235.267 58.9223 242.153 64.1743C241.243 66.2342 239.666 67.3292 238.274 68.5911ZM245.234 49.8288C244.714 53.2992 247.832 55.1179 248.315 58.1058C247.628 59.7946 246.218 60.9823 244.399 62.1886C243.155 59.8317 241.986 57.6232 240.965 55.6746C234.209 53.6704 231.425 47.5647 226.451 43.6675C229.829 39.6218 233.448 36.3927 236.455 33.3863C242.617 39.5476 248.63 45.5419 255.034 51.9259C254.774 52.7053 253.456 53.7817 251.767 54.6539C249.113 53.8745 248.111 50.831 245.234 49.8288ZM261.251 97.6903C262.272 93.8859 265.112 90.8238 266.095 86.2771C261.975 87.836 260.36 91.4919 257.168 93.422C255.293 92.4941 254.106 90.8238 253.085 89.7103C259.933 82.8438 266.689 76.0886 273.761 69.018C274.948 69.8531 276.303 71.1893 277.473 72.9337C275.969 76.2185 271.979 77.6661 270.568 81.8602C274.911 81.0251 277.621 77.796 281.296 77.0908C283.263 77.963 284.47 79.4291 285.843 81.3963C281.946 84.4212 276.934 85.2007 272.833 88.0401C269.993 92.2899 268.879 97.6347 265.836 102.219C263.942 100.938 262.569 99.4348 261.251 97.6903ZM269.269 105.503C269.659 103.406 271.626 102.553 273.055 101.031C276.155 102.812 277.844 105.8 280.758 107.693C282.224 107.155 283.022 106.376 283.338 104.928C282.038 102.014 278.772 100.53 277.009 97.2821C280.572 92.8838 284.934 89.1907 288.794 85.1265C291.393 85.6461 292.284 87.6318 293.898 89.0608C291.949 92.3456 288.776 94.22 286.808 97.0594C286.864 98.5069 287.569 99.3235 289.147 99.8431C291.597 97.5233 294.14 95.1108 296.831 92.5497C298.854 93.3848 299.949 95.1293 300.951 96.1686C294.028 103.072 287.198 109.883 280.498 116.583C277.176 113.316 273.297 109.493 269.269 105.503ZM293.341 129.926C298.204 123.969 304.273 119.385 308.876 113.558C307.317 111.201 306.185 112.444 305.053 113.391C301.174 116.601 297.313 119.812 293.453 123.059C292.321 124.024 291.3 125.101 289.592 125.676C287.384 124.692 285.917 122.725 284.414 120.795C285.175 118.884 286.697 117.9 287.662 116.991C288.906 116.026 289.648 117.232 291.281 116.75C296.293 112.611 301.861 108.027 307.15 103.666C310.714 107.248 314.203 110.755 317.451 113.984C311.178 120.276 304.385 127.049 297.443 133.99C296.088 133.136 294.826 131.54 293.341 129.926ZM310.324 146.944C313.757 143.956 316.857 141.246 319.957 138.555C319.697 138.203 319.437 137.85 319.177 137.498C314.927 138.797 311.289 141.58 307.002 143.195C304.979 142.267 303.846 140.374 302.492 139.094C309.47 132.097 316.207 125.305 323.056 118.438C324.708 119.422 325.97 121.018 327.381 122.595C324.615 126.307 320.829 128.757 317.896 133.118C323.13 131.448 326.935 128.515 331.297 126.975C333.505 128.014 334.675 129.889 336.067 131.206L315.409 151.862C313.832 150.897 312.607 149.245 310.324 146.944ZM327.9 164.054C329.459 160.918 332.874 159.211 334.712 156.167C334.6 154.775 333.672 154.163 332.41 153.625C329.552 155.573 327.789 158.895 324.541 160.603C322.555 159.6 321.219 158.097 320.309 156.761C327.139 149.969 333.821 143.306 340.892 136.254C342.34 136.959 343.602 138.574 345.124 140.467C342.507 142.768 339.89 145.069 337.273 147.371C337.96 149.598 339.092 149.987 340.168 150.618C343.231 148.8 344.975 145.645 347.982 143.807C350.042 144.587 351.286 146.164 352.232 147.612C345.384 154.367 338.665 160.974 331.779 167.766C330.616 167.135 329.323 165.898 327.9 164.054ZM344.085 180.311C344.196 177.936 346.627 177.008 347.11 175.096C346.999 174.131 346.479 173.667 345.644 173.371C343.454 173.482 342.711 176.21 340.28 176.47C338.535 175.598 337.236 174.057 335.677 171.923C342.934 165.428 350.673 159.675 358.302 153.643C361.512 156.39 364.278 159.025 366.858 162.31C360.826 169.863 354.849 177.342 348.687 185.062C346.646 183.411 345.068 182.093 344.085 180.311ZM362.904 187.697C360.269 188.83 359.062 191.502 356.613 192.912C354.868 191.873 353.569 190.314 352.622 189.145C359.452 182.26 366.171 175.486 372.723 168.898C376.138 172.387 380.017 176.358 383.506 179.922C379.33 184.097 374.671 188.737 369.623 193.766C367.377 192.374 365.726 189.349 362.904 187.697ZM381.223 217.632C379.794 216.648 378.309 215.275 376.843 212.807C380.165 209.874 383.599 206.887 387.014 203.88C386.754 203.528 386.494 203.175 386.234 202.822C381.613 204.214 377.771 207.406 373.112 209.244C371.164 208.241 369.809 206.515 368.714 205.235C375.562 198.368 382.3 191.595 389.315 184.543C390.615 185.415 391.951 186.751 393.194 188.588C390.615 192.263 386.754 194.842 384.49 199.129C388.74 196.995 392.972 194.861 397.166 192.745C399.301 194.007 400.785 195.585 401.825 197.106C394.883 204.029 388.109 210.784 381.223 217.632ZM396.795 233.48C395.811 233.091 394.883 231.161 393.12 229.917C394.512 226.892 397.797 225.593 399.041 222.29C394.995 221.622 392.99 225.426 389.445 225.723C387.868 224.87 386.531 223.348 385.214 221.492C387.367 219.339 390.41 218.801 392.99 216.834C392.842 214.978 393.566 213.326 395.162 211.805C398.688 208.446 401.955 204.827 405.555 201.078C409.991 205.717 413.759 209.633 417.118 213.141C410.734 219.525 403.996 226.28 396.795 233.48Z" fill="#EAE0C5"/>
<path d="M78.9544 227.431C74.5557 222.587 70.2312 217.799 65.8881 213.011L65.1086 213.79C63.7537 213.53 63.4011 214.625 62.3061 215.813C67.0389 220.545 71.6974 225.222 76.3189 229.862C75.5579 231.903 73.9061 232.72 73.2565 233.518C67.0389 227.412 60.8955 221.362 55.012 215.572C57.8145 212.621 61.2296 209.021 64.1621 205.94C70.1569 211.934 76.1333 217.947 82.1282 223.96C82.388 224.851 81.0146 226.02 78.9544 227.431Z" fill="#E67950"/>
<path d="M86.6382 209.707C87.8632 206.979 90.8885 205.68 91.7979 203.899C87.3992 199.389 83.2603 195.139 79.4369 191.224C76.2075 194.23 72.6625 197.533 68.8577 201.059C75.0011 207.351 80.8289 213.66 87.3064 219.246C88.9954 217.929 90.3317 217.001 90.8514 215.331C90.1832 212.918 87.492 212.064 86.6382 209.707ZM81.8497 205.012C80.0865 204.196 78.9544 202.674 77.8037 201.245C77.7109 199.927 78.379 199.296 79.604 199.018C81.3857 199.779 82.5179 201.301 83.6315 202.748C83.7429 204.103 83.0376 204.697 81.8497 205.012Z" fill="#E67950"/>
<path d="M93.858 176.711C90.7028 179.866 87.195 183.373 84.2625 186.306C90.1831 192.226 96.2151 198.257 102.414 204.456C105.477 201.412 109.077 198.164 111.88 194.805C105.699 188.607 99.6859 182.575 93.858 176.711ZM101.505 196.086C97.9598 193.543 95.1943 189.962 91.9649 186.992C92.3361 185.471 92.8372 185.007 93.9323 184.617C97.5886 187.159 100.41 190.815 103.509 193.747C103.305 195.251 102.767 195.826 101.505 196.086Z" fill="#E67950"/>
<path d="M129.586 177.101C129.048 178.159 127.916 179.253 126.19 180.107C121.995 177.806 119.656 173.148 115.425 170.624C114.497 172.628 116.39 174.131 115.777 176.154C114.033 176.21 112.362 174.929 110.191 175.393C112.993 179.55 117.188 182.223 120.102 186.194C119.378 187.92 118.097 189.034 117.058 189.553C110.896 183.503 104.938 177.639 98.5723 171.385C98.8321 170.123 100.651 169.269 101.765 168.063C104.808 167.636 106.869 170.179 109.82 169.863C109.727 167.265 108.186 165.168 107.555 162.588C108.502 160.899 109.968 159.526 111.156 158.728C117.392 164.945 123.406 170.939 129.586 177.101Z" fill="#E67950"/>
<path d="M150.819 155.907C150.058 157.095 148.907 158.209 147.998 158.821C141.799 152.623 135.692 146.535 129.512 140.374C130.236 139.65 131.442 138.463 132.426 137.498C138.476 143.548 144.49 149.579 150.819 155.907Z" fill="#E67950"/>
<path d="M132.593 150.21C129.902 151.509 128.64 154.553 125.874 155.703C123.313 154.144 121.902 151.546 119.397 150.191C118.135 151.676 116.501 152.585 116.204 154.07C122.348 160.176 128.268 166.077 133.911 171.682C137.381 168.508 141.038 165.149 143.914 162.514C140.091 158.357 136.342 154.274 132.593 150.21ZM134.059 164.11C132.5 162.83 131.256 161.642 130.31 160.287C130.551 158.988 131.238 158.357 132.389 158.19C134.078 159.118 135.247 160.565 136.286 161.92C136.119 163.349 135.433 163.962 134.059 164.11Z" fill="#E67950"/>
<path d="M170.195 136.087C165.407 140.875 160.284 145.997 155.385 150.86C149.594 144.958 143.617 138.871 137.326 132.45C137.66 131.689 138.94 130.538 140.759 129.61C146.049 133.526 149.928 139.205 155.83 142.564C153.157 136.199 147.088 132.747 143.098 127.254C143.692 125.602 145.047 124.563 146.643 123.523C151.988 127.346 155.459 133.155 161.064 136.551C161.194 136.644 161.565 136.347 162.196 136.087C161.12 132.71 158.02 131.002 155.83 128.664C153.621 126.289 151.06 124.266 148.87 122.28C149.538 119.57 151.209 118.754 151.951 117.863C158.131 124.024 164.145 130.037 170.195 136.087Z" fill="#E67950"/>
<path d="M185.693 121.074C185.043 122.243 183.633 123.301 182.278 124.6C176.914 120.424 173.109 114.801 167.616 111.034C167.486 110.941 167.096 111.201 166.168 111.535C169.267 117.807 174.91 122.057 178.622 127.94C177.434 129.796 175.875 131.244 174.167 132.505C172.553 131.856 171.717 130.613 170.529 129.313C171.235 126.678 169.397 124.915 167.801 123.004C164.702 119.292 161.602 115.562 158.391 111.702C161.435 108.083 164.442 105.114 167.263 102.701C173.462 108.881 179.494 114.894 185.693 121.074Z" fill="#E67950"/>
<path d="M199.242 107.452C196.365 110.885 193.358 113.669 190.741 116.119C184.617 109.994 178.603 103.982 172.367 97.746C174.371 94.9066 177.378 92.3456 180.236 89.7289C182.278 89.9516 183.039 91.4919 184.115 92.6982C183.893 95.0365 181.387 95.7232 180.552 97.746C180.552 99.2121 181.684 99.8988 182.779 100.53C183.986 100.79 184.542 99.3606 185.73 99.5462C187.011 99.9916 187.735 101.124 188.403 101.866C189.052 103.369 187.809 104.019 187.642 105.058C187.957 106.431 188.923 107.266 190.277 107.805C192.059 106.988 193.043 105.169 194.88 104.019C196.848 104.408 197.627 106.301 199.242 107.452Z" fill="#E67950"/>
<path d="M212.438 94.2757C211.9 95.5376 210.415 96.6511 208.856 97.8388C206.035 96.0387 204.364 93.0137 201.71 91.5105C200.411 91.6961 199.891 92.3456 199.539 93.4962C200.69 96.4655 204.086 97.8388 205.589 100.845C204.773 102.497 203.585 103.685 202.471 104.186C196.309 98.0801 190.37 92.1971 184.078 85.9616C184.635 84.8481 185.823 83.7717 187.438 82.7325C190.203 84.013 191.632 87.1122 194.286 88.5226C195.604 88.5597 196.272 87.9288 196.643 86.574C195.363 83.8831 192.245 82.4727 190.834 79.6704C191.502 77.8517 192.913 76.8124 193.822 75.9031C200.003 81.9902 206.072 87.9844 212.438 94.2757Z" fill="#E67950"/>
<path d="M227.008 79.8931C226.451 80.7468 225.263 82.0087 223.518 82.9738C220.809 81.4706 219.25 78.5384 216.67 77.0166C215.315 76.9052 214.591 77.4806 214.183 78.9466C215.742 81.6005 218.619 83.3264 220.642 85.9616C219.732 87.5948 218.303 88.634 217.449 89.4877C211.269 83.3449 205.2 77.3321 198.778 70.9852C199.743 70.2057 201.098 69.1294 202.657 67.9045C204.847 69.5191 206.536 72.4698 209.134 73.9174C210.545 73.6947 210.972 72.9709 211.25 71.876C210.044 69.0737 206.889 67.6818 205.404 64.8795C206.258 63.2464 207.445 62.003 208.633 61.4648C214.814 67.6818 220.846 73.7132 227.008 79.8931Z" fill="#E67950"/>
<path d="M221.774 48.3812C218.934 50.8123 216.224 52.8352 214.535 56.1757C219.825 62.8009 225.04 69.3705 230.478 76.1999C232.539 74.5297 233.986 73.3234 234.914 71.7088C232.835 68.9499 232.328 66.958 233.392 65.7331C235.341 66.0486 236.102 68.4797 238.274 68.5911C239.666 67.3291 241.243 66.2342 242.153 64.1742C235.267 58.9223 228.864 53.262 221.774 48.3812ZM227.416 62.671C225.449 60.9451 223.388 59.312 222.702 56.4726C225.282 57.1778 226.748 59.1821 228.455 60.5554C228.827 61.6874 228.27 62.1328 227.416 62.671Z" fill="#E67950"/>
<path d="M236.455 33.3862C233.448 36.3927 229.829 39.6218 226.451 43.6675C231.425 47.5647 234.209 53.6703 240.965 55.6746C241.986 57.6232 243.155 59.8316 244.398 62.1885C246.217 60.9822 247.628 59.7945 248.315 58.1057C247.832 55.1179 244.714 53.2992 245.234 49.8288C248.11 50.8309 249.113 53.8745 251.767 54.6539C253.456 53.7817 254.773 52.7053 255.033 51.9258C248.63 45.5418 242.617 39.5475 236.455 33.3862ZM238.756 46.878C237.234 45.9687 236.213 44.9665 235.452 43.7417C235.285 42.4612 235.972 41.8673 237.271 41.4405C238.849 42.257 240 43.6303 240.909 44.948C240.557 46.3213 239.833 46.6739 238.756 46.878Z" fill="#E67950"/>
<path d="M285.843 81.3962C281.945 84.4212 276.934 85.2007 272.832 88.0401C269.993 92.2899 268.879 97.6347 265.835 102.219C263.942 100.938 262.569 99.4348 261.251 97.6903C262.272 93.8859 265.111 90.8238 266.095 86.2771C261.975 87.8359 260.36 91.4919 257.168 93.4219C255.293 92.494 254.105 90.8238 253.084 89.7103C259.933 82.8438 266.689 76.0886 273.76 69.0179C274.948 69.8531 276.303 71.1893 277.472 72.9337C275.969 76.2185 271.979 77.6661 270.568 81.8602C274.911 81.0251 277.621 77.796 281.296 77.0908C283.263 77.963 284.469 79.4291 285.843 81.3962Z" fill="#E67950"/>
<path d="M317.451 113.984C311.177 120.276 304.384 127.049 297.443 133.99C296.088 133.136 294.826 131.54 293.341 129.926C298.204 123.969 304.273 119.385 308.876 113.558C307.317 111.201 306.185 112.444 305.053 113.391C301.173 116.601 297.313 119.812 293.453 123.059C292.32 124.024 291.3 125.101 289.592 125.676C287.383 124.692 285.917 122.725 284.414 120.795C285.175 118.884 286.697 117.9 287.662 116.991C288.905 116.026 289.648 117.232 291.281 116.75C296.292 112.611 301.86 108.027 307.15 103.666C310.713 107.248 314.203 110.755 317.451 113.984Z" fill="#E67950"/>
<path d="M300.951 96.1686C294.028 103.072 287.198 109.883 280.498 116.583C277.175 113.316 273.296 109.493 269.269 105.503C269.659 103.406 271.626 102.553 273.055 101.031C276.155 102.812 277.844 105.8 280.758 107.693C282.224 107.155 283.022 106.376 283.337 104.928C282.038 102.014 278.772 100.53 277.008 97.2821C280.572 92.8838 284.934 89.1907 288.794 85.1265C291.392 85.6461 292.283 87.6318 293.898 89.0608C291.949 92.3456 288.775 94.22 286.808 97.0594C286.864 98.5069 287.569 99.3235 289.147 99.8431C291.597 97.5233 294.139 95.1108 296.83 92.5497C298.854 93.3849 299.949 95.1293 300.951 96.1686Z" fill="#E67950"/>
<path d="M336.066 131.206L315.409 151.862C313.832 150.897 312.607 149.245 310.324 146.944C313.757 143.956 316.857 141.246 319.956 138.555C319.696 138.203 319.437 137.85 319.177 137.498C314.927 138.797 311.289 141.58 307.001 143.195C304.978 142.267 303.846 140.374 302.491 139.094C309.47 132.097 316.207 125.305 323.056 118.438C324.708 119.422 325.97 121.018 327.38 122.595C324.615 126.307 320.829 128.757 317.896 133.118C323.13 131.448 326.935 128.515 331.296 126.975C333.505 128.014 334.674 129.889 336.066 131.206Z" fill="#E67950"/>
<path d="M352.232 147.612C345.384 154.367 338.665 160.974 331.779 167.766C330.616 167.135 329.323 165.898 327.9 164.054C329.459 160.918 332.874 159.211 334.711 156.167C334.6 154.775 333.672 154.163 332.41 153.625C329.552 155.573 327.789 158.895 324.541 160.603C322.555 159.6 321.218 158.097 320.309 156.761C327.139 149.969 333.821 143.306 340.892 136.254C342.34 136.959 343.602 138.574 345.124 140.467C342.507 142.768 339.89 145.069 337.273 147.371C337.96 149.598 339.092 149.987 340.168 150.618C343.231 148.8 344.975 145.645 347.982 143.807C350.042 144.587 351.286 146.164 352.232 147.612Z" fill="#E67950"/>
<path d="M358.301 153.643C350.673 159.675 342.934 165.428 335.677 171.923C337.236 174.057 338.535 175.597 340.28 176.47C342.711 176.21 343.453 173.482 345.643 173.371C346.479 173.667 346.998 174.131 347.11 175.096C346.627 177.008 344.196 177.936 344.084 180.311C345.068 182.093 346.646 183.41 348.687 185.062C354.849 177.342 360.825 169.863 366.857 162.31C364.278 159.025 361.512 156.39 358.301 153.643ZM352.64 169.807C351.416 169.807 350.784 169.362 350.599 167.989C352.733 166.244 354.422 163.683 357.652 162.997C356.464 165.762 354.682 167.952 352.64 169.807Z" fill="#E67950"/>
<path d="M372.722 168.898C366.171 175.486 359.452 182.26 352.622 189.145C353.568 190.314 354.868 191.873 356.612 192.912C359.062 191.502 360.269 188.83 362.904 187.697C365.725 189.349 367.377 192.374 369.623 193.766C374.671 188.737 379.33 184.097 383.506 179.922C380.017 176.358 376.137 172.387 372.722 168.898ZM370.792 184.524C369.14 184.32 368.472 183.466 368.12 182.186C369.382 180.386 370.848 178.771 372.741 177.676C373.947 177.973 374.634 178.678 375.005 180.052C373.762 182 372.184 183.299 370.792 184.524Z" fill="#E67950"/>
<path d="M401.824 197.106C394.883 204.029 388.109 210.784 381.223 217.632C379.794 216.648 378.309 215.275 376.843 212.807C380.165 209.874 383.599 206.887 387.014 203.88C386.754 203.528 386.494 203.175 386.234 202.822C381.613 204.214 377.771 207.406 373.112 209.244C371.163 208.241 369.808 206.515 368.713 205.235C375.562 198.368 382.299 191.595 389.315 184.543C390.614 185.415 391.951 186.751 393.194 188.588C390.614 192.263 386.754 194.842 384.489 199.129C388.74 196.995 392.971 194.861 397.166 192.745C399.3 194.007 400.785 195.585 401.824 197.106Z" fill="#E67950"/>
<path d="M405.555 201.078C401.954 204.827 398.688 208.446 395.161 211.805C393.565 213.326 392.841 214.978 392.99 216.834C390.41 218.801 387.366 219.339 385.213 221.492C386.531 223.348 387.867 224.87 389.445 225.723C392.99 225.426 394.994 221.622 399.041 222.29C397.797 225.593 394.512 226.892 393.12 229.917C394.883 231.161 395.811 233.091 396.795 233.481C403.996 226.28 410.733 219.525 417.118 213.141C413.759 209.633 409.991 205.717 405.555 201.078ZM404.757 217.335C403.235 217.465 402.623 216.518 402.029 215.294C402.715 213.475 404.367 212.473 405.685 211.136C407.374 211.433 408.116 212.046 408.413 213.271C407.764 215.108 406.149 216.147 404.757 217.335Z" fill="#E67950"/>
<path d="M471.072 310.293C466.673 309.68 363.108 309.773 358.71 310.553C357.893 342.825 347.072 371.071 324.652 394.51C302.102 418.116 274.28 430.698 241.893 432.387C213.607 433.872 187.512 426.189 164.683 409.301C131.609 384.822 114.905 351.529 113.773 310.219H0.463976C0.408295 337.963 4.9555 364.594 14.4211 390.334C32.1459 438.511 62.2874 477.224 104.883 505.952C189.479 562.999 303.865 559.585 385.64 492.515C424.468 460.688 450.563 420.306 463.871 371.85C470.348 348.281 473.763 317.141 471.072 310.293ZM75.465 453.914C70.9735 449.312 66.8346 444.413 63.0669 438.567C70.9735 429.418 78.7687 420.38 86.3969 411.546C86.601 410.024 86.0071 409.282 84.4295 408.614C74.9639 414.59 65.2385 420.732 55.1604 427.079C51.1328 421.79 48.0148 416.186 45.0452 410.024C66.8717 398.982 88.5127 388.051 110.284 377.046C112.901 380.35 114.645 383.894 116.798 387.606C111.007 391.893 104.734 395.196 99.1847 399.613C100.076 402.304 101.765 401.692 103.528 401.154C109.189 399.428 114.868 397.757 120.529 396.069C121.086 395.902 121.68 395.827 122.366 395.679C125.336 399.205 128.268 402.694 131.405 406.443C128.807 408.28 125.8 408.503 123.09 409.319C117.151 411.101 111.137 412.678 105.105 414.163C102.34 414.868 100.503 416.371 98.9806 418.784C92.0206 429.789 84.9121 440.72 77.8593 451.669C77.3767 452.411 77.0798 453.283 75.465 453.914ZM84.9863 464.159C89.9047 459.463 93.8023 454.23 98.8878 449.739C106.052 455.232 112.826 460.447 119.656 465.699C122.793 462.804 124.723 459.463 127.396 456.197C121.605 450.351 114.423 446.361 108.112 440.441C117.559 430.81 126.895 421.271 136.49 411.472C139.46 414.293 142.318 417.002 145.548 420.046C140.815 425.984 136.212 431.719 131.572 437.528C132.63 440.144 135.117 440.924 137.196 442.538C142.504 436.971 146.086 430.253 151.376 424.76C155.125 426.745 158.336 429.065 161.955 431.682C149.167 452.485 136.435 473.215 123.573 494.167C109.319 485.593 96.8462 475.553 84.9863 464.159ZM187.902 520.13C181.164 519.165 175.021 517.272 168.191 514.73C174 495.615 179.754 476.611 185.47 457.83C184.505 455.77 182.853 455.677 180.589 455.399C172.107 473.345 163.532 491.476 154.865 509.83C147.385 507.158 140.666 503.91 133.855 500.124C136.249 493.592 140.165 488.191 142.764 482.308C145.102 481.789 146.606 483.793 149.352 483.218C157.705 468.78 166.353 453.877 175.151 438.697C184.32 442.891 193.377 445.934 203.028 448.57C197.98 472.528 192.969 496.171 187.902 520.13ZM235.378 525.605V465.903C232.835 464.474 230.72 464.641 228.084 465.346C226.302 485.185 226.098 505.116 224.539 525.233C218.043 525.4 211.974 524.881 205.404 523.47C208.949 499.382 212.475 475.479 216.076 451.075C226.544 452.3 236.826 452.912 247.925 451.984C250.041 476.277 252.138 500.44 254.254 524.77C247.851 525.79 241.893 526.403 235.378 525.605ZM290.149 518.905C284.098 521.039 278.011 521.819 271.366 523.007C267.431 498.788 263.664 474.737 260.082 450.407C270.846 448.31 280.683 445.786 290.743 441.518C296.645 455.9 302.454 470.004 308.43 484.573C300.394 487.894 292.135 489.008 283.987 492.033C285.212 501.126 288.478 509.682 290.149 518.905ZM333.542 502.648C322.499 480.601 311.678 459.018 300.728 437.156C310.175 431.756 319.01 426.411 327.362 419.248C343.101 438.066 358.617 456.605 374.541 475.628C361.735 486.521 348.483 495.225 333.542 502.648ZM416.32 429.102C402.678 419.656 389.241 410.34 375.803 401.042C375.544 401.228 375.265 401.413 375.005 401.599C377.548 406.925 380.091 412.251 382.93 418.227C376.23 418.598 370.421 416 363.925 416.575C376.397 427.265 388.87 437.954 401.472 448.755C396.832 454.527 392.229 459.667 386.624 464.678C369.771 447.066 353.03 429.566 336.048 411.825C339.277 408.206 342.395 404.717 345.421 401.339C351.991 401.673 357.967 404.216 365.15 404.364C362.032 398.166 359.248 392.654 356.297 386.79C357.986 383.468 359.879 380.034 362.403 376.304C383.951 387.922 405.24 399.409 426.769 411.008C423.874 417.615 420.18 423.071 416.32 429.102Z" fill="#212F2F"/>
<path d="M375.803 401.042C375.543 401.228 375.265 401.413 375.005 401.599C377.548 406.925 380.091 412.251 382.93 418.227C376.23 418.598 370.421 416 363.925 416.575C376.397 427.265 388.87 437.954 401.472 448.755C396.832 454.527 392.229 459.667 386.624 464.678C369.771 447.066 353.03 429.566 336.048 411.825C339.277 408.206 342.395 404.717 345.421 401.339C351.991 401.673 357.967 404.216 365.15 404.364C362.032 398.166 359.248 392.654 356.297 386.79C357.986 383.468 359.879 380.034 362.403 376.304C383.951 387.922 405.24 399.409 426.769 411.008C423.874 417.615 420.18 423.071 416.32 429.102C402.678 419.656 389.241 410.34 375.803 401.042Z" fill="#EAE0C5"/>
<path d="M327.362 419.248C319.01 426.411 310.175 431.756 300.728 437.156C311.679 459.018 322.499 480.601 333.542 502.648C348.483 495.225 361.735 486.521 374.541 475.628C358.617 456.605 343.101 438.066 327.362 419.248ZM338.572 473.735C331.89 463.064 325.32 452.597 318.657 441.982C320.587 439.977 322.276 438.845 324.745 437.954C332.057 447.772 338.813 458.072 345.81 468.26C343.973 470.969 341.337 471.934 338.572 473.735Z" fill="#EAE0C5"/>
<path d="M308.431 484.573C302.454 470.004 296.645 455.9 290.743 441.518C280.683 445.786 270.847 448.31 260.082 450.407C263.664 474.737 267.431 498.788 271.366 523.007C278.011 521.819 284.098 521.039 290.149 518.905C288.479 509.682 285.212 501.126 283.987 492.033C292.135 489.008 300.394 487.894 308.431 484.573ZM275.858 460.391C277.881 459.018 280.015 458.758 282.688 458.406C284.135 463.082 285.546 467.648 286.975 472.25C284.525 474.032 282.094 474.291 279.384 474.533C277.899 469.819 276.34 465.272 275.858 460.391Z" fill="#EAE0C5"/>
<path d="M254.254 524.77C247.851 525.79 241.893 526.403 235.378 525.605V465.903C232.836 464.474 230.72 464.641 228.084 465.346C226.302 485.185 226.098 505.116 224.539 525.234C218.043 525.401 211.974 524.881 205.404 523.471C208.949 499.382 212.475 475.479 216.076 451.075C226.544 452.3 236.826 452.912 247.925 451.984C250.041 476.277 252.138 500.44 254.254 524.77Z" fill="#EAE0C5"/>
<path d="M203.028 448.57C197.98 472.528 192.969 496.171 187.902 520.13C181.164 519.165 175.021 517.272 168.191 514.73C174 495.615 179.754 476.611 185.47 457.83C184.505 455.77 182.853 455.678 180.589 455.399C172.107 473.345 163.532 491.476 154.865 509.83C147.385 507.158 140.666 503.91 133.855 500.124C136.249 493.592 140.165 488.191 142.764 482.309C145.102 481.789 146.606 483.793 149.353 483.218C157.705 468.78 166.353 453.877 175.151 438.697C184.32 442.891 193.377 445.934 203.028 448.57Z" fill="#EAE0C5"/>
<path d="M161.955 431.682C149.167 452.485 136.435 473.215 123.573 494.167C109.319 485.593 96.8462 475.553 84.9863 464.159C89.9047 459.463 93.8023 454.23 98.8878 449.739C106.052 455.232 112.826 460.447 119.656 465.699C122.793 462.804 124.723 459.463 127.396 456.197C121.605 450.351 114.423 446.361 108.112 440.441C117.559 430.81 126.895 421.271 136.49 411.472C139.46 414.293 142.318 417.002 145.548 420.046C140.815 425.984 136.212 431.719 131.572 437.528C132.63 440.144 135.117 440.924 137.196 442.538C142.504 436.971 146.086 430.253 151.376 424.76C155.125 426.745 158.336 429.065 161.955 431.682Z" fill="#EAE0C5"/>
<path d="M131.405 406.443C128.807 408.28 125.8 408.503 123.09 409.319C117.151 411.101 111.137 412.678 105.105 414.163C102.34 414.868 100.502 416.371 98.9806 418.784C92.0206 429.789 84.9121 440.72 77.8593 451.669C77.3767 452.411 77.0797 453.283 75.465 453.914C70.9735 449.312 66.8346 444.413 63.0669 438.567C70.9735 429.418 78.7687 420.38 86.3969 411.546C86.601 410.024 86.0071 409.282 84.4295 408.614C74.9639 414.59 65.2384 420.732 55.1603 427.079C51.1328 421.79 48.0147 416.186 45.0451 410.024C66.8717 398.982 88.5127 388.052 110.284 377.047C112.901 380.35 114.645 383.894 116.798 387.606C111.007 391.893 104.734 395.196 99.1847 399.613C100.076 402.304 101.765 401.692 103.528 401.154C109.189 399.428 114.868 397.757 120.529 396.069C121.086 395.902 121.679 395.827 122.366 395.679C125.336 399.205 128.268 402.694 131.405 406.443Z" fill="#EAE0C5"/>
<path d="M289.541 325.444V325.121V308.214V308.015L289.69 307.884C290.362 307.289 291.14 307.127 291.776 306.995C291.844 306.981 291.911 306.967 291.976 306.953C292.62 306.813 293.114 306.659 293.494 306.161V261.152C293.11 260.813 292.644 260.683 292.094 260.531L292.065 260.523C291.479 260.36 290.75 260.156 290.296 259.438L290.277 259.408L290.263 259.375C289.779 258.241 289.805 257.025 289.828 255.932C289.833 255.704 289.838 255.483 289.838 255.268C289.838 255.026 289.833 254.78 289.827 254.529C289.802 253.293 289.775 251.941 290.33 250.472L290.379 250.343L290.492 250.265C299.724 243.905 306.42 236.428 309.889 227.818C313.355 219.215 313.616 209.437 309.906 198.435M289.541 325.444L310.324 198.294M289.541 325.444L289.849 325.541C309.077 331.63 327.348 339.65 341.831 354.185C329.377 389.063 291.594 420.21 248.048 424.562L248.092 425.001L248.048 424.562C189.169 430.464 144.258 391.391 130.469 354.221C137.657 347.064 145.845 341.561 154.647 336.83L154.647 336.83C163.37 332.136 172.656 328.842 182.302 325.726L182.608 325.627V325.306V308.233V308.122L182.555 308.024C182.119 307.212 181.313 307.067 180.67 306.951C180.651 306.947 180.631 306.944 180.612 306.94C179.967 306.824 179.369 306.709 178.84 306.243M289.541 325.444L182.167 308.233C181.832 307.61 181.222 307.499 180.529 307.374C179.839 307.249 179.066 307.109 178.399 306.433M309.906 198.435L310.324 198.294M309.906 198.435C309.906 198.435 309.906 198.435 309.906 198.435L310.324 198.294M309.906 198.435C306.251 187.612 300.157 180.144 292.252 175.42C284.339 170.691 274.576 168.691 263.56 168.875L263.427 168.877L263.314 168.806C262.777 168.461 262.262 168.125 261.756 167.796C261.131 167.388 260.521 166.991 259.903 166.6M310.324 198.294C302.955 176.47 285.694 168.063 263.552 168.434C263.023 168.095 262.509 167.76 262.002 167.43C261.372 167.019 260.755 166.617 260.137 166.226M259.903 166.6C259.903 166.6 259.904 166.6 259.904 166.6L260.137 166.226M259.903 166.6C259.902 166.599 259.902 166.599 259.901 166.598L260.137 166.226M259.903 166.6C246.415 158.21 232.247 156.896 218.03 163.728L218.03 163.729C217.669 163.901 217.31 164.074 216.951 164.247C211.162 167.033 205.508 169.754 198.779 169.487L198.777 169.487C198.617 169.48 198.441 169.504 198.23 169.545C198.177 169.555 198.119 169.567 198.059 169.579C197.901 169.611 197.723 169.647 197.557 169.669M260.137 166.226C246.533 157.763 232.204 156.427 217.839 163.331L198.796 169.047C198.52 169.035 198.236 169.092 197.954 169.15C197.801 169.181 197.648 169.212 197.497 169.232M197.557 169.669C197.558 169.669 197.558 169.669 197.559 169.669L197.497 169.232M197.557 169.669C180.974 172.023 169.449 181.161 163.198 196.402L163.198 196.402C156.955 211.587 159.696 225.901 169.436 239.064L169.437 239.064C172.57 243.301 176.783 246.285 181.045 249.304C181.585 249.686 182.125 250.069 182.665 250.455L182.849 250.587V250.814C182.849 251.656 182.874 252.495 182.898 253.327C182.959 255.402 183.018 257.442 182.695 259.422L182.67 259.574L182.555 259.678C181.926 260.246 181.157 260.383 180.53 260.494C180.472 260.504 180.416 260.514 180.36 260.525C179.725 260.641 179.228 260.771 178.84 261.199M197.557 169.669C197.556 169.669 197.555 169.669 197.554 169.67L197.497 169.232M197.497 169.232L178.84 261.199M178.84 261.199V261.039H178.399M178.84 261.199L162.79 196.234C156.48 211.582 159.264 226.057 169.082 239.326C172.26 243.624 176.535 246.651 180.79 249.664C181.33 250.047 181.87 250.429 182.408 250.814C182.408 251.687 182.433 252.543 182.458 253.385C182.518 255.442 182.575 257.415 182.259 259.351C181.728 259.83 181.083 259.946 180.441 260.062C179.692 260.196 178.949 260.33 178.399 261.039M178.84 261.199C178.809 261.234 178.778 261.271 178.748 261.31L178.399 261.039M178.84 261.199V306.243M178.399 261.039V306.433M178.399 306.433L178.713 306.123C178.755 306.165 178.797 306.205 178.84 306.243M178.399 306.433H178.84V306.243M139.643 355.794L139.878 355.593C154.601 342.948 171.911 336.341 190.059 331.226V300.32C189.67 299.815 189.166 299.7 188.498 299.578C188.471 299.573 188.444 299.568 188.416 299.563C187.737 299.44 186.885 299.287 186.238 298.466L186.143 298.346V298.193V269.372V269.241L186.215 269.131C186.784 268.26 187.619 268.083 188.317 267.935L188.376 267.922C189.06 267.776 189.666 267.635 190.197 267.062C190.536 260.34 190.449 253.169 190.216 245.772C180.516 241.192 173.101 234.477 169.519 224.124C166.985 216.843 166.644 209.546 168.938 202.099C171.699 193.085 177.153 186.24 185.247 181.508L139.643 355.794ZM139.643 355.794L139.752 356.083M139.643 355.794L139.752 356.083M139.752 356.083C149.255 381.284 182.044 415.225 231.124 417.703C274.81 419.902 315.308 394.802 333.015 356.428L333.153 356.128L332.904 355.911C318.291 343.153 300.668 336.289 282.294 331.242V300.412C282.794 299.845 283.389 299.728 284.054 299.603L284.075 299.599C284.41 299.537 284.798 299.464 285.14 299.293C285.514 299.106 285.827 298.808 286.028 298.325L286.061 298.244V298.156V269.224V269.035M139.752 356.083L286.061 269.035M286.061 269.035L285.925 268.904M286.061 269.035L285.925 268.904M285.925 268.904C285.319 268.327 284.626 268.142 284.048 267.988C283.957 267.963 283.868 267.94 283.783 267.916C283.19 267.746 282.665 267.533 282.198 266.858C282.18 266.138 282.16 265.41 282.141 264.677C281.982 258.665 281.813 252.243 282.202 245.69C290.605 241.964 297.192 236.397 301.253 228.183C305.423 219.769 306.157 210.949 303.452 201.99C301.236 194.63 297.081 188.46 290.819 183.835C282.105 177.398 272.388 175.109 262.043 177.208C251.411 170.395 243.306 166.935 235.469 166.93C227.629 166.926 220.145 170.378 210.757 177.169M285.925 268.904L210.757 177.169M210.757 177.169C201.923 175.479 193.267 176.809 185.248 181.508L210.757 177.169Z" fill="#212F2F" stroke="#EAE0C5" stroke-width="0.882353"/>
<path d="M281.853 331.579V300.253C283.115 298.638 284.989 299.678 285.62 298.156V269.224C284.414 268.073 282.892 268.76 281.76 266.997C281.593 260.26 281.314 252.911 281.778 245.395C290.223 241.702 296.812 236.171 300.858 227.987C304.978 219.673 305.702 210.969 303.03 202.117C300.839 194.842 296.738 188.755 290.557 184.19C281.89 177.787 272.238 175.542 261.956 177.676C240.575 163.943 229.736 163.943 210.86 177.639C202.063 175.913 193.451 177.212 185.47 181.889C177.471 186.565 172.089 193.321 169.36 202.229C167.096 209.578 167.43 216.778 169.936 223.979C173.499 234.279 180.905 240.941 190.649 245.488C190.89 253.041 190.983 260.371 190.63 267.238C189.312 268.815 187.53 267.924 186.584 269.372V298.193C187.698 299.603 189.479 298.657 190.5 300.179V331.56C172.256 336.683 154.902 343.271 140.165 355.927C149.612 380.981 182.259 414.794 231.147 417.262C274.651 419.452 314.982 394.454 332.614 356.243C317.989 343.475 300.32 336.627 281.853 331.579ZM173.778 202.674C178.993 186.992 193.618 179.309 212.308 182.408C225.857 168.304 246.514 168.119 260.007 182.464C279.774 179.717 293.694 187.085 298.668 202.897C303.828 219.265 296.719 232.683 277.157 242.76V254.581H195.771C194.119 250.554 195.771 246.286 194.695 242.37C173.406 234 169.62 215.256 173.778 202.674ZM226.358 277.835C226.135 281.194 223.24 283.662 219.732 283.495C216.299 283.328 213.607 280.433 213.811 277.129C213.997 273.845 217.059 270.949 220.215 271.024C223.611 271.116 226.581 274.42 226.358 277.835ZM169.88 387.643C159.189 379.589 151.543 369.345 145.399 357.95C149.278 353.496 161.231 346.426 169.713 343.66C170.641 358.414 170.177 372.964 169.88 387.643ZM290.539 385.583C287.049 386.808 187.623 387.105 181.962 385.917C180.942 370.774 180.144 355.482 179.754 340.097C184.431 337.202 189.739 336.887 194.732 334.938V295.762C194.026 294.37 192.003 294.964 190.89 293.331V274.197C191.948 272.601 193.637 272.991 194.75 271.785C195.548 267.757 194.509 263.433 195.344 259.239C196.829 257.922 198.37 258.2 200.671 258.998V335.94C212.123 339.244 223.704 341.359 235.564 344.18V327.014C232.167 325.269 228.177 323.896 226.395 319.405C237.772 322.875 241.484 322.523 246.292 317.475C244.194 315.656 241.893 314.079 240.092 311.926C238.274 309.773 237.68 307.008 236.121 303.89C233.931 310.72 230.441 315.675 224.168 317.994C218.247 320.147 212.197 320.685 205.385 319.089C206.981 313.355 210.137 309.161 214.257 305.783C218.823 302.053 224.112 299.863 230.181 300.012C234.914 300.123 239.666 299.789 244.324 300.995C252.992 303.241 259.581 307.973 263.385 316.269C263.794 317.159 263.552 318.904 265.445 318.551C265.39 312.316 258.857 305.727 247.813 300.791C248.445 299.566 250.078 300.476 250.894 299.102C247.591 285.907 244.231 272.471 240.761 258.608H276.767C277.714 263.118 276.823 267.423 277.361 271.506C278.252 273.176 280.312 272.304 281.444 273.974V293.98C280.052 294.481 278.827 294.927 277.435 295.428V334.808C282.261 336.905 287.717 337.239 292.747 339.819C292.098 355.111 291.708 370.44 290.539 385.583ZM302.213 388.683C301.285 373.131 303.067 358.674 302.658 344.106C308.895 345.071 321.812 352.383 327.083 357.932C320.81 369.512 313.126 379.719 302.213 388.683Z" fill="#EAE0C5"/>
<path d="M408.413 213.271C407.764 215.108 406.149 216.147 404.757 217.335C403.235 217.465 402.623 216.518 402.029 215.294C402.715 213.475 404.367 212.473 405.685 211.136C407.374 211.433 408.116 212.046 408.413 213.271Z" fill="#EAE0C5"/>
<path d="M357.652 162.997C356.464 165.762 354.682 167.952 352.641 169.807C351.416 169.807 350.785 169.362 350.599 167.989C352.733 166.244 354.422 163.683 357.652 162.997Z" fill="#EAE0C5"/>
<path d="M375.005 180.052C373.762 182 372.184 183.299 370.792 184.524C369.14 184.32 368.472 183.466 368.12 182.186C369.382 180.386 370.848 178.771 372.741 177.676C373.947 177.973 374.634 178.678 375.005 180.052Z" fill="#EAE0C5"/>
<path d="M103.509 193.747C103.305 195.251 102.767 195.826 101.505 196.086C97.9598 193.543 95.1943 189.962 91.9649 186.992C92.3361 185.47 92.8372 185.007 93.9323 184.617C97.5886 187.159 100.41 190.815 103.509 193.747Z" fill="#EAE0C5"/>
<path d="M240.909 44.948C240.556 46.3214 239.833 46.674 238.756 46.8781C237.234 45.9687 236.213 44.9666 235.452 43.7418C235.285 42.4613 235.972 41.8674 237.271 41.4406C238.849 42.2571 240 43.6304 240.909 44.948Z" fill="#EAE0C5"/>
<path d="M227.416 62.6711C225.449 60.9452 223.388 59.3121 222.702 56.4727C225.282 57.1779 226.748 59.1822 228.455 60.5555C228.827 61.6875 228.27 62.1329 227.416 62.6711Z" fill="#EAE0C5"/>
<path d="M83.6315 202.748C83.7428 204.103 83.0375 204.697 81.8497 205.012C80.0865 204.196 78.9543 202.674 77.8036 201.245C77.7108 199.927 78.379 199.296 79.6039 199.018C81.3857 199.779 82.5179 201.301 83.6315 202.748Z" fill="#EAE0C5"/>
<path d="M136.286 161.92C136.119 163.349 135.432 163.962 134.059 164.11C132.5 162.83 131.256 161.642 130.31 160.287C130.551 158.988 131.238 158.357 132.389 158.19C134.078 159.118 135.247 160.565 136.286 161.92Z" fill="#EAE0C5"/>
<path d="M345.81 468.26C343.973 470.969 341.337 471.934 338.572 473.735C331.89 463.064 325.32 452.597 318.657 441.982C320.587 439.977 322.276 438.845 324.745 437.954C332.057 447.772 338.813 458.072 345.81 468.26Z" fill="#212F2F"/>
<path d="M286.975 472.25C284.525 474.032 282.094 474.291 279.384 474.533C277.899 469.819 276.34 465.272 275.858 460.391C277.881 459.018 280.015 458.758 282.688 458.406C284.135 463.082 285.546 467.648 286.975 472.25Z" fill="#212F2F"/>
<path d="M277.435 334.808V295.428C278.827 294.927 280.052 294.481 281.444 293.98V273.974C280.312 272.304 278.252 273.176 277.361 271.506C276.823 267.423 277.714 263.118 276.767 258.608H240.761C244.231 272.471 247.591 285.907 250.894 299.102C250.078 300.476 248.445 299.566 247.813 300.791C258.857 305.727 265.39 312.316 265.445 318.551C263.552 318.904 263.794 317.159 263.385 316.269C259.581 307.973 252.992 303.241 244.324 300.995C239.666 299.789 234.914 300.123 230.181 300.012C224.112 299.863 218.823 302.053 214.257 305.783C210.137 309.161 206.981 313.355 205.385 319.089C212.197 320.685 218.247 320.147 224.168 317.994C230.441 315.675 233.931 310.72 236.121 303.89C237.68 307.008 238.274 309.773 240.092 311.926C241.893 314.079 244.194 315.656 246.292 317.475C241.484 322.523 237.772 322.875 226.395 319.405C228.177 323.896 232.167 325.269 235.564 327.014V344.18C223.704 341.359 212.123 339.244 200.671 335.94V258.998C198.37 258.2 196.829 257.922 195.344 259.239C194.509 263.433 195.548 267.757 194.75 271.785C193.637 272.991 191.948 272.601 190.89 274.197V293.331C192.003 294.964 194.027 294.37 194.732 295.762V334.938C189.739 336.887 184.431 337.202 179.754 340.097C180.144 355.482 180.942 370.774 181.962 385.917C187.623 387.105 287.049 386.808 290.539 385.583C291.708 370.44 292.098 355.111 292.747 339.819C287.718 337.239 282.261 336.905 277.435 334.808ZM261.901 282.251C259.339 282.994 256.611 281.899 255.423 279.69C254.309 277.556 255.108 274.457 257.168 272.991C259.599 271.265 261.659 271.71 265.037 274.828C265.538 279.579 264.703 281.453 261.901 282.251ZM218.711 365.503C211.9 357.505 205.998 349.191 199.799 341.118C200.003 340.784 200.207 340.468 200.411 340.134C211.826 343.902 223.24 347.669 235.582 351.733C229.625 356.577 224.391 360.864 218.711 365.503ZM253.938 365.652C248.092 360.882 242.839 356.595 236.9 351.752C249.224 347.632 260.898 343.735 272.573 339.837C272.777 340.06 272.981 340.283 273.166 340.505C266.912 348.708 260.638 356.892 253.938 365.652Z" fill="#212F2F"/>
<path d="M261.9 282.251C259.339 282.994 256.611 281.899 255.423 279.69C254.309 277.556 255.107 274.457 257.168 272.991C259.599 271.265 261.659 271.71 265.037 274.828C265.538 279.579 264.703 281.453 261.9 282.251Z" fill="#EAE0C5"/>
<path d="M235.582 351.733C229.625 356.577 224.391 360.864 218.711 365.503C211.9 357.505 205.998 349.191 199.799 341.118C200.003 340.784 200.207 340.468 200.411 340.134C211.826 343.902 223.24 347.669 235.582 351.733Z" fill="#EAE0C5"/>
<path d="M273.166 340.505C266.912 348.708 260.638 356.892 253.938 365.652C248.092 360.882 242.839 356.595 236.9 351.752C249.224 347.632 260.898 343.735 272.573 339.837C272.777 340.06 272.981 340.283 273.166 340.505Z" fill="#EAE0C5"/>
<path d="M298.668 202.897C293.694 187.085 279.774 179.717 260.007 182.464C246.514 168.119 225.857 168.304 212.308 182.408C193.618 179.309 178.993 186.992 173.777 202.674C169.62 215.256 173.406 234 194.695 242.37C195.753 246.286 194.119 250.554 195.771 254.581H277.157V242.76C296.719 232.683 303.828 219.265 298.668 202.897ZM286.437 230.66C278.92 237.693 266.652 241.052 252.713 231.755C242.004 239.345 230.979 239.549 219.825 231.643C213.143 236.32 205.886 238.695 197.72 236.84C192.523 235.652 187.994 233.146 184.468 229.194C177.007 220.842 175.968 208.575 181.74 199.074C188.124 188.551 198.648 185.285 214.387 189.145C225.746 174.113 245.679 172.999 258.188 189.256C265.687 186.528 273.352 186.139 280.813 189.813C285.75 192.244 289.369 196.086 291.838 200.985C296.849 210.969 294.715 222.902 286.437 230.66Z" fill="#212F2F"/>
<path d="M291.838 200.985C289.369 196.086 285.75 192.244 280.813 189.813C273.352 186.139 265.687 186.528 258.188 189.256C245.679 172.999 225.746 174.113 214.387 189.145C198.648 185.285 188.124 188.551 181.74 199.074C175.968 208.575 177.007 220.842 184.468 229.194C187.994 233.146 192.523 235.652 197.72 236.84C205.886 238.695 213.143 236.32 219.825 231.643C230.98 239.549 242.004 239.345 252.713 231.755C266.652 241.052 278.92 237.693 286.437 230.66C294.715 222.902 296.849 210.969 291.838 200.985ZM185.712 208.427C185.173 197.979 195.882 190.518 206.814 194.082C197.794 196.735 190.649 200.614 185.712 208.427ZM220.326 200.725C219.565 194.137 221.922 189.071 227.212 185.526C233.132 181.555 239.276 181.815 245.308 186.324C233.745 185.545 225.764 190.797 220.326 200.725Z" fill="#EAE0C5"/>
<path d="M327.083 357.932C320.81 369.512 313.126 379.719 302.213 388.682C301.285 373.131 303.067 358.674 302.658 344.106C308.894 345.071 321.812 352.383 327.083 357.932Z" fill="#212F2F"/>
<path d="M169.88 387.643C159.189 379.589 151.543 369.345 145.399 357.95C149.278 353.496 161.231 346.426 169.713 343.66C170.641 358.414 170.177 372.964 169.88 387.643Z" fill="#212F2F"/>
<path d="M226.358 277.835C226.135 281.194 223.24 283.662 219.732 283.495C216.299 283.328 213.607 280.433 213.811 277.129C213.997 273.845 217.059 270.949 220.215 271.024C223.611 271.116 226.581 274.42 226.358 277.835Z" fill="#212F2F"/>
<path d="M245.308 186.324C233.745 185.545 225.764 190.797 220.326 200.725C219.565 194.137 221.922 189.071 227.212 185.526C233.132 181.555 239.276 181.815 245.308 186.324Z" fill="#97AAA8"/>
<path d="M206.814 194.081C197.794 196.735 190.649 200.614 185.712 208.427C185.173 197.979 195.883 190.518 206.814 194.081Z" fill="#97AAA8"/>
</g>
<defs>
<clipPath id="clip0_113_1682">
<rect width="472" height="546" fill="white"/>
</clipPath>
</defs>
</svg>
