<svg width="34" height="21" viewBox="0 0 34 21" fill="none" xmlns="http://www.w3.org/2000/svg">
<path fill-rule="evenodd" clip-rule="evenodd" d="M30.2636 14.5196C30.2636 14.5196 33.0125 17.313 33.6925 18.6056C33.7057 18.6243 33.716 18.645 33.7231 18.6669C34.0002 19.1444 34.0682 19.5187 33.9322 19.7951C33.7027 20.2516 32.9258 20.4808 32.6623 20.5H27.8037C27.4654 20.5 26.7616 20.409 25.9048 19.8003C25.2503 19.3298 24.5992 18.5549 23.9685 17.7975C23.0267 16.6728 22.2124 15.6968 21.3879 15.6968C21.2837 15.6966 21.1803 15.7143 21.0819 15.7493C20.458 15.9522 19.6658 16.867 19.6658 19.3036C19.6658 20.0662 19.081 20.5 18.6713 20.5H16.446C15.6878 20.5 11.7404 20.2271 8.24006 16.4297C3.95096 11.7804 0.0987532 2.45382 0.0613532 2.37161C-0.178347 1.76815 0.324853 1.4393 0.868854 1.4393H5.77506C6.43296 1.4393 6.64716 1.84861 6.79676 2.21593C6.97016 2.63748 7.61276 4.32368 8.66676 6.21803C10.3736 9.30007 11.4225 10.5542 12.2606 10.5542C12.418 10.5547 12.5728 10.5125 12.7094 10.4318C13.8042 9.81258 13.6002 5.78949 13.5492 4.96038C13.5492 4.79946 13.5475 3.16398 12.9865 2.37336C12.5853 1.80663 11.9019 1.58623 11.4888 1.50577C11.5993 1.34135 11.8339 1.08947 12.1348 0.94079C12.8845 0.555973 14.2394 0.5 15.5841 0.5H16.3304C17.789 0.52099 18.1664 0.617194 18.6968 0.755379C19.7644 1.01775 19.7848 1.72967 19.6913 4.15401C19.6641 4.84669 19.6352 5.62681 19.6352 6.54513C19.6352 6.74103 19.6267 6.95968 19.6267 7.18183C19.5944 8.42548 19.5519 9.82657 20.4053 10.402C20.516 10.473 20.6438 10.5106 20.7742 10.5105C21.07 10.5105 21.9557 10.5105 24.3578 6.26876C25.4118 4.3954 26.2278 2.1862 26.2839 2.02003C26.3315 1.92732 26.4743 1.6667 26.6477 1.56175C26.771 1.49422 26.9092 1.46049 27.0489 1.46379H32.8204C33.4494 1.46379 33.8761 1.56175 33.9594 1.80663C34.0988 2.20369 33.9322 3.41586 31.2972 7.08212C30.8535 7.69258 30.4642 8.22083 30.1225 8.68261C27.734 11.9081 27.734 12.0708 30.2636 14.5196Z" fill="white"/>
</svg>
