<svg width="306" height="38" viewBox="0 0 306 38" fill="none" xmlns="http://www.w3.org/2000/svg">
<g clip-path="url(#clip0_53_300)">
<path d="M172.648 37.0743H153.591V0.894043H170.329C177.912 0.894043 182.013 5.58343 182.013 11.1427C182.013 13.6274 180.75 16.192 178.813 18.1118C181.676 19.5966 184.127 22.9811 184.127 26.5157C184.127 32.6949 179.276 37.0743 172.648 37.0743ZM162.589 29.8002H171.41C173.605 29.8002 175.024 28.1855 175.024 26.2407V26.1657C175.024 24.191 173.579 22.6062 171.41 22.6062H162.589V29.8002ZM162.589 15.3221H169.166C171.511 15.3221 172.93 13.7074 172.93 11.7626C172.93 9.78787 171.617 8.20308 169.166 8.20308H162.589C162.589 8.19808 162.589 15.3221 162.589 15.3221Z" fill="white"/>
<path d="M71.3696 37.0743L58.2657 18.5767L70.957 0.894043H60.3842L50.2745 15.3971V0.894043H41.0655V37.0743H50.2745V22.2412L60.4094 37.0743H71.3696Z" fill="white"/>
<path d="M236.819 0.894043V27.6455C236.819 28.8504 236.276 29.7702 235.144 29.7702C233.543 29.7702 233.468 27.9505 233.468 26.7456H224.828C224.828 32.5349 228.179 37.9692 235.4 37.9692C241.696 37.9692 245.998 32.8948 245.998 26.6457V9.04297H258.453V37.0743H267.662V0.894043H236.819Z" fill="white"/>
<path d="M112.74 0.894043L99.998 27.5905C97.653 32.6649 92.7767 37.9692 84.4987 37.9692C77.4586 37.9692 70.8312 33.7147 69.6436 24.366H78.5657C79.235 28.1055 81.9172 29.7702 84.9113 29.7702C87.4627 29.7702 89.1938 28.2604 89.6819 27.3856L74.4896 0.894043H85.0875L94.7343 18.3917L102.68 0.894043H112.74Z" fill="white"/>
<path d="M24.6855 37.0743H0.188568V0.894043H22.3958C29.9794 0.894043 34.0807 5.58343 34.0807 11.1427C34.0807 13.6274 32.8176 16.192 30.8802 18.1118C33.7435 19.5966 36.1942 22.9811 36.1942 26.5157C36.1892 32.6949 31.318 37.0743 24.6855 37.0743ZM9.1862 29.8002H23.4727C25.6668 29.8002 27.0858 28.1855 27.0858 26.2407V26.1657C27.0858 24.191 25.6416 22.6062 23.4727 22.6062H9.1862V29.8002ZM9.1862 15.3221H21.2283C23.5734 15.3221 24.9924 13.7074 24.9924 11.7626C24.9924 9.78787 23.679 8.20308 21.2283 8.20308H9.1862V15.3221Z" fill="white"/>
<path d="M139.149 23.4959C137.73 26.8005 134.685 29.1352 130.433 29.1352C124.45 29.1352 120.836 24.4958 120.836 18.9865C120.836 13.4773 124.45 8.83786 130.433 8.83786C134.69 8.83786 137.73 11.1975 139.149 14.5271H149.052C147.195 6.2532 140.205 -0.000976562 130.433 -0.000976562C118.954 -0.000976562 111.32 8.60789 111.32 18.9865V19.0115C111.32 29.4152 118.954 37.999 130.433 37.999C140.205 37.999 147.195 31.7748 149.052 23.4959H139.149Z" fill="white"/>
<path d="M213.993 0.894043L198.645 21.8063V0.894043H189.441V37.0743H197.82L213.193 16.192V37.0743H222.402V0.894043H213.993Z" fill="white"/>
<path d="M278.084 0.894043V25.3358C278.084 27.5905 276.795 28.9503 274.445 28.9503H271.738V37.0493H276.614C283.035 37.0493 287.293 33.0248 287.293 25.6708V9.01797H296.602V37.0493H305.811V0.894043H278.084Z" fill="white"/>
</g>
<defs>
<clipPath id="clip0_53_300">
<rect width="306" height="38" fill="white"/>
</clipPath>
</defs>
</svg>
